<?xml version="1.0" encoding="UTF-8" standalone="no"?>
<!-- Created with Inkscape (http://www.inkscape.org/) -->

<svg
   xmlns:dc="http://purl.org/dc/elements/1.1/"
   xmlns:cc="http://creativecommons.org/ns#"
   xmlns:rdf="http://www.w3.org/1999/02/22-rdf-syntax-ns#"
   xmlns:svg="http://www.w3.org/2000/svg"
   xmlns="http://www.w3.org/2000/svg"
   xmlns:sodipodi="http://sodipodi.sourceforge.net/DTD/sodipodi-0.dtd"
   xmlns:inkscape="http://www.inkscape.org/namespaces/inkscape"
   width="455.92862"
   height="223.88895"
   id="svg5063"
   version="1.1"
   inkscape:version="0.91pre2 r13516"
   viewBox="0 0 455.92862 223.88895"
   sodipodi:docname="BFS.svg">
  <defs
     id="defs5065" />
  <sodipodi:namedview
     id="base"
     pagecolor="#ffffff"
     bordercolor="#666666"
     borderopacity="1.0"
     inkscape:pageopacity="0.0"
     inkscape:pageshadow="2"
     inkscape:zoom="1.4"
     inkscape:cx="198.62807"
     inkscape:cy="94.194565"
     inkscape:document-units="px"
     inkscape:current-layer="layer1"
     showgrid="false"
     inkscape:window-width="1920"
     inkscape:window-height="1018"
     inkscape:window-x="1072"
     inkscape:window-y="-8"
     inkscape:window-maximized="1"
     fit-margin-top="0"
     fit-margin-left="0"
     fit-margin-right="0"
     fit-margin-bottom="0" />
  <metadata
     id="metadata5068">
    <rdf:RDF>
      <cc:Work
         rdf:about="">
        <dc:format>image/svg+xml</dc:format>
        <dc:type
           rdf:resource="http://purl.org/dc/dcmitype/StillImage" />
        <dc:title></dc:title>
      </cc:Work>
    </rdf:RDF>
  </metadata>
  <g
     inkscape:label="Layer 1"
     inkscape:groupmode="layer"
     id="layer1"
     transform="translate(-165.78571,-289.49625)">
    <circle
       style="fill:none;fill-opacity:0.35294118;stroke:#000000;stroke-width:2;stroke-linecap:butt;stroke-miterlimit:4;stroke-dasharray:none;stroke-opacity:1"
       id="path5611"
       cx="329.04761"
       cy="341.29074"
       r="32.857143"
       d="m 361.90475,341.29074 a 32.857143,32.857143 0 0 1 -32.85714,32.85714 32.857143,32.857143 0 0 1 -32.85715,-32.85714 32.857143,32.857143 0 0 1 32.85715,-32.85714 32.857143,32.857143 0 0 1 32.85714,32.85714 z" />
    <circle
       style="fill:none;fill-opacity:0.35294118;stroke:#000000;stroke-width:2;stroke-linecap:butt;stroke-miterlimit:4;stroke-dasharray:none;stroke-opacity:1"
       id="path5611-1"
       cx="199.64285"
       cy="341.29074"
       r="32.857143"
       d="M 232.5,341.29074 A 32.857143,32.857143 0 0 1 199.64285,374.14788 32.857143,32.857143 0 0 1 166.78571,341.29074 32.857143,32.857143 0 0 1 199.64285,308.4336 32.857143,32.857143 0 0 1 232.5,341.29074 Z" />
    <circle
       style="fill:none;fill-opacity:0.35294118;stroke:#000000;stroke-width:2;stroke-linecap:butt;stroke-miterlimit:4;stroke-dasharray:none;stroke-opacity:1"
       id="path5611-4"
       cx="458.45239"
       cy="341.29074"
       r="32.857143"
       d="m 491.30954,341.29074 a 32.857143,32.857143 0 0 1 -32.85715,32.85714 32.857143,32.857143 0 0 1 -32.85714,-32.85714 32.857143,32.857143 0 0 1 32.85714,-32.85714 32.857143,32.857143 0 0 1 32.85715,32.85714 z" />
    <circle
       style="fill:none;fill-opacity:0.35294118;stroke:#000000;stroke-width:2;stroke-linecap:butt;stroke-miterlimit:4;stroke-dasharray:none;stroke-opacity:1"
       id="path5611-8"
       cx="329.04761"
       cy="464.14792"
       r="32.857143"
       d="m 361.90475,464.14792 a 32.857143,32.857143 0 0 1 -32.85714,32.85714 32.857143,32.857143 0 0 1 -32.85715,-32.85714 32.857143,32.857143 0 0 1 32.85715,-32.85714 32.857143,32.857143 0 0 1 32.85714,32.85714 z" />
    <circle
       style="fill:none;fill-opacity:0.35294118;stroke:#000000;stroke-width:2;stroke-linecap:butt;stroke-miterlimit:4;stroke-dasharray:none;stroke-opacity:1"
       id="path5611-6"
       cx="199.64285"
       cy="464.14792"
       r="32.857143"
       d="M 232.5,464.14792 A 32.857143,32.857143 0 0 1 199.64285,497.00506 32.857143,32.857143 0 0 1 166.78571,464.14792 32.857143,32.857143 0 0 1 199.64285,431.29078 32.857143,32.857143 0 0 1 232.5,464.14792 Z" />
    <circle
       style="fill:none;fill-opacity:0.35294118;stroke:#000000;stroke-width:2;stroke-linecap:butt;stroke-miterlimit:4;stroke-dasharray:none;stroke-opacity:1"
       id="path5611-64"
       cx="458.45239"
       cy="464.14792"
       r="32.857143"
       d="m 491.30954,464.14792 a 32.857143,32.857143 0 0 1 -32.85715,32.85714 32.857143,32.857143 0 0 1 -32.85714,-32.85714 32.857143,32.857143 0 0 1 32.85714,-32.85714 32.857143,32.857143 0 0 1 32.85715,32.85714 z" />
    <circle
       style="fill:none;fill-opacity:0.35294118;stroke:#000000;stroke-width:2;stroke-linecap:butt;stroke-miterlimit:4;stroke-dasharray:none;stroke-opacity:1"
       id="path5611-5"
       cx="587.85718"
       cy="341.29074"
       r="32.857143"
       d="m 620.71432,341.29074 a 32.857143,32.857143 0 0 1 -32.85714,32.85714 32.857143,32.857143 0 0 1 -32.85715,-32.85714 32.857143,32.857143 0 0 1 32.85715,-32.85714 32.857143,32.857143 0 0 1 32.85714,32.85714 z" />
    <circle
       style="fill:none;fill-opacity:0.35294118;stroke:#000000;stroke-width:2;stroke-linecap:butt;stroke-miterlimit:4;stroke-dasharray:none;stroke-opacity:1"
       id="path5611-60"
       cx="587.85718"
       cy="464.14792"
       r="32.857143"
       d="m 620.71432,464.14792 a 32.857143,32.857143 0 0 1 -32.85714,32.85714 32.857143,32.857143 0 0 1 -32.85715,-32.85714 32.857143,32.857143 0 0 1 32.85715,-32.85714 32.857143,32.857143 0 0 1 32.85714,32.85714 z" />
    <path
       style="fill:none;fill-rule:evenodd;stroke:#000000;stroke-width:1px;stroke-linecap:butt;stroke-linejoin:miter;stroke-opacity:1"
       d="m 197.85714,373.79076 0,58.57143"
       id="path5664"
       inkscape:connector-curvature="0" />
    <path
       style="fill:none;fill-rule:evenodd;stroke:#000000;stroke-width:1px;stroke-linecap:butt;stroke-linejoin:miter;stroke-opacity:1"
       d="m 329.28571,374.50505 0,56.42857"
       id="path5666"
       inkscape:connector-curvature="0" />
    <path
       style="fill:none;fill-rule:evenodd;stroke:#000000;stroke-width:1px;stroke-linecap:butt;stroke-linejoin:miter;stroke-opacity:1"
       d="m 231.42857,339.50505 62.85714,0"
       id="path5668"
       inkscape:connector-curvature="0" />
    <path
       style="fill:none;fill-rule:evenodd;stroke:#000000;stroke-width:1px;stroke-linecap:butt;stroke-linejoin:miter;stroke-opacity:1"
       d="m 355,442.36219 78.92857,-78.92857"
       id="path5670"
       inkscape:connector-curvature="0" />
    <path
       style="fill:none;fill-rule:evenodd;stroke:#000000;stroke-width:1px;stroke-linecap:butt;stroke-linejoin:miter;stroke-opacity:1"
       d="m 457.14286,373.79076 0,57.85715"
       id="path5672"
       inkscape:connector-curvature="0" />
    <path
       style="fill:none;fill-rule:evenodd;stroke:#000000;stroke-width:1px;stroke-linecap:butt;stroke-linejoin:miter;stroke-opacity:1"
       d="m 491.42857,462.36219 61.42857,0"
       id="path5674"
       inkscape:connector-curvature="0" />
    <path
       style="fill:none;fill-rule:evenodd;stroke:#000000;stroke-width:1px;stroke-linecap:butt;stroke-linejoin:miter;stroke-opacity:1"
       d="m 587.85714,430.93362 0,-55.71429"
       id="path5676"
       inkscape:connector-curvature="0" />
    <path
       style="fill:none;fill-rule:evenodd;stroke:#000000;stroke-width:1px;stroke-linecap:butt;stroke-linejoin:miter;stroke-opacity:1"
       d="m 553.57143,340.93362 -62.14286,0"
       id="path5678"
       inkscape:connector-curvature="0" />
    <text
       xml:space="preserve"
       style="font-style:normal;font-variant:normal;font-weight:normal;font-stretch:normal;font-size:15px;line-height:125%;font-family:'Times New Roman';-inkscape-font-specification:'Times New Roman, Normal';text-align:start;letter-spacing:0px;word-spacing:0px;writing-mode:lr-tb;text-anchor:start;fill:#000000;fill-opacity:1;stroke:none;stroke-width:1px;stroke-linecap:butt;stroke-linejoin:miter;stroke-opacity:1"
       x="199.35715"
       y="297.46133"
       id="text4150"
       sodipodi:linespacing="125%"><tspan
         sodipodi:role="line"
         id="tspan4152"
         x="199.35715"
         y="297.46133">r</tspan></text>
    <text
       xml:space="preserve"
       style="font-style:normal;font-variant:normal;font-weight:normal;font-stretch:normal;font-size:15px;line-height:125%;font-family:'Times New Roman';-inkscape-font-specification:'Times New Roman, Normal';text-align:start;letter-spacing:0px;word-spacing:0px;writing-mode:lr-tb;text-anchor:start;fill:#000000;fill-opacity:1;stroke:none;stroke-width:1px;stroke-linecap:butt;stroke-linejoin:miter;stroke-opacity:1"
       x="330.07141"
       y="297.35876"
       id="text4154"
       sodipodi:linespacing="125%"><tspan
         sodipodi:role="line"
         id="tspan4156"
         x="330.07141"
         y="297.35876">s</tspan></text>
    <text
       xml:space="preserve"
       style="font-style:normal;font-variant:normal;font-weight:normal;font-stretch:normal;font-size:15px;line-height:125%;font-family:'Times New Roman';-inkscape-font-specification:'Times New Roman, Normal';text-align:start;letter-spacing:0px;word-spacing:0px;writing-mode:lr-tb;text-anchor:start;fill:#000000;fill-opacity:1;stroke:none;stroke-width:1px;stroke-linecap:butt;stroke-linejoin:miter;stroke-opacity:1"
       x="199.35715"
       y="511.664"
       id="text4158"
       sodipodi:linespacing="125%"><tspan
         sodipodi:role="line"
         id="tspan4160"
         x="199.35715"
         y="511.664">v</tspan></text>
    <text
       xml:space="preserve"
       style="font-style:normal;font-variant:normal;font-weight:normal;font-stretch:normal;font-size:15px;line-height:125%;font-family:'Times New Roman';-inkscape-font-specification:'Times New Roman, Normal';text-align:start;letter-spacing:0px;word-spacing:0px;writing-mode:lr-tb;text-anchor:start;fill:#000000;fill-opacity:1;stroke:none;stroke-width:1px;stroke-linecap:butt;stroke-linejoin:miter;stroke-opacity:1"
       x="328.64285"
       y="511.664"
       id="text4162"
       sodipodi:linespacing="125%"><tspan
         sodipodi:role="line"
         id="tspan4164"
         x="328.64285"
         y="511.664">w</tspan></text>
    <text
       xml:space="preserve"
       style="font-style:normal;font-variant:normal;font-weight:normal;font-stretch:normal;font-size:15px;line-height:125%;font-family:'Times New Roman';-inkscape-font-specification:'Times New Roman, Normal';text-align:start;letter-spacing:0px;word-spacing:0px;writing-mode:lr-tb;text-anchor:start;fill:#000000;fill-opacity:1;stroke:none;stroke-width:1px;stroke-linecap:butt;stroke-linejoin:miter;stroke-opacity:1"
       x="459.35715"
       y="511.76654"
       id="text4166"
       sodipodi:linespacing="125%"><tspan
         sodipodi:role="line"
         id="tspan4168"
         x="459.35715"
         y="511.76654">x</tspan></text>
    <text
       xml:space="preserve"
       style="font-style:normal;font-variant:normal;font-weight:normal;font-stretch:normal;font-size:15px;line-height:125%;font-family:'Times New Roman';-inkscape-font-specification:'Times New Roman, Normal';text-align:start;letter-spacing:0px;word-spacing:0px;writing-mode:lr-tb;text-anchor:start;fill:#000000;fill-opacity:1;stroke:none;stroke-width:1px;stroke-linecap:butt;stroke-linejoin:miter;stroke-opacity:1"
       x="588.64288"
       y="510.14789"
       id="text4170"
       sodipodi:linespacing="125%"><tspan
         sodipodi:role="line"
         id="tspan4172"
         x="588.64288"
         y="510.14789">y</tspan></text>
    <text
       xml:space="preserve"
       style="font-style:normal;font-variant:normal;font-weight:normal;font-stretch:normal;font-size:15px;line-height:125%;font-family:'Times New Roman';-inkscape-font-specification:'Times New Roman, Normal';text-align:start;letter-spacing:0px;word-spacing:0px;writing-mode:lr-tb;text-anchor:start;fill:#000000;fill-opacity:1;stroke:none;stroke-width:1px;stroke-linecap:butt;stroke-linejoin:miter;stroke-opacity:1"
       x="587.21429"
       y="297.25992"
       id="text4174"
       sodipodi:linespacing="125%"><tspan
         sodipodi:role="line"
         id="tspan4176"
         x="587.21429"
         y="297.25992">u</tspan></text>
    <text
       xml:space="preserve"
       style="font-style:normal;font-variant:normal;font-weight:normal;font-stretch:normal;font-size:15px;line-height:125%;font-family:'Times New Roman';-inkscape-font-specification:'Times New Roman, Normal';text-align:start;letter-spacing:0px;word-spacing:0px;writing-mode:lr-tb;text-anchor:start;fill:#000000;fill-opacity:1;stroke:none;stroke-width:1px;stroke-linecap:butt;stroke-linejoin:miter;stroke-opacity:1"
       x="456.5"
       y="298.40982"
       id="text4178"
       sodipodi:linespacing="125%"><tspan
         sodipodi:role="line"
         id="tspan4180"
         x="456.5"
         y="298.40982">t</tspan></text>
  </g>
</svg>
