<?xml version="1.0"?><svg xmlns="http://www.w3.org/2000/svg" xmlns:xlink="http://www.w3.org/1999/xlink" viewBox="225.34 164.17 89.32 85.83" preserveAspectRatio="xMidYMid" width="100%" height="100%"><clipPath id="40"><rect x="0.5" y="0.5" width="539" height="719" /></clipPath><g id="drawing"><rect x="225.34" y="164.17" width="100%" height="100%" fill="rgb(255, 255, 255)" /><g id="page" clip-path="url(#40)"><g><text xml:space="preserve" text-anchor="start" text-rendering="geometricPrecision"><tspan x="247.97" y="247.63" font-family="Arial" font-size="10" fill="rgb(0, 0, 0)">NH</tspan><tspan font-family="Arial" dy="2.26" font-size="7.5" fill="rgb(0, 0, 0)">2</tspan></text></g><g><text xml:space="preserve" text-anchor="start" text-rendering="geometricPrecision"><tspan x="273.65" y="172.63" font-family="Arial" font-size="10" fill="rgb(0, 0, 0)">O</tspan></text></g><g><text xml:space="preserve" text-anchor="start" text-rendering="geometricPrecision"><tspan x="299.64" y="217.63" font-family="Arial" font-size="10" fill="rgb(0, 0, 0)">OH</tspan></text></g><g id="WedgeBegin"><path d="M251.05 214.01 L251.05 214.01 L251.57 213.73 L252.09 214.01 L254.57 238.5 L251.57 238.5 L248.57 238.5 Z" stroke="rgb(0, 0, 0)" stroke-width="0" fill-rule="evenodd" stroke-linejoin="miter" fill="rgb(0, 0, 0)" shape-rendering="geometricPrecision" /></g><g id="Solid"><path d="M277.55 198.15 L277.55 198.15 L277.55 198.73 L277.55 199.31 L252.09 214.01 L251.57 213.73 L251.57 213.15 Z" stroke="rgb(0, 0, 0)" stroke-width="0" fill-rule="evenodd" stroke-linejoin="miter" fill="rgb(0, 0, 0)" shape-rendering="geometricPrecision" /></g><g id="Solid"><path d="M251.57 213.15 L251.57 213.15 L251.57 213.73 L251.05 214.01 L225.34 199.16 L225.59 198.73 L225.84 198.3 Z" stroke="rgb(0, 0, 0)" stroke-width="0" fill-rule="evenodd" stroke-linejoin="miter" fill="rgb(0, 0, 0)" shape-rendering="geometricPrecision" /></g><g id="Solid"><line x1="275.75" y1="198.73" x2="275.75" y2="174.8" stroke="rgb(0, 0, 0)" stroke-width="1" shape-rendering="auto" /><path d="M278.85 198.9 L278.85 198.9 L279.85 199.48 L279.85 174.8 L278.85 174.8 Z" stroke="rgb(0, 0, 0)" stroke-width="0" fill-rule="evenodd" stroke-linejoin="miter" fill="rgb(0, 0, 0)" shape-rendering="geometricPrecision" /><path d="M275.25 199.48 L275.25 199.48 L276.25 198.9 L276.25 174.8 L275.25 174.8 Z" stroke="rgb(0, 0, 0)" stroke-width="0" fill-rule="evenodd" stroke-linejoin="miter" fill="rgb(0, 0, 0)" shape-rendering="geometricPrecision" /></g><g id="Solid"><path d="M277.55 199.31 L277.55 199.31 L277.55 198.73 L277.55 198.15 L299.02 210.54 L298.77 210.98 L298.52 211.41 Z" stroke="rgb(0, 0, 0)" stroke-width="0" fill-rule="evenodd" stroke-linejoin="miter" fill="rgb(0, 0, 0)" shape-rendering="geometricPrecision" /></g></g></g></svg>