<?xml version="1.0"?><svg xmlns="http://www.w3.org/2000/svg" xmlns:xlink="http://www.w3.org/1999/xlink" viewBox="153.01 164.17 233.98 85.83" preserveAspectRatio="xMidYMid" width="100%" height="100%"><clipPath id="77"><rect x="0.5" y="0.5" width="539" height="719" /></clipPath><g id="drawing"><rect x="153.01" y="164.17" width="100%" height="100%" fill="rgb(255, 255, 255)" /><g id="page" clip-path="url(#77)"><g><text xml:space="preserve" text-anchor="start" text-rendering="geometricPrecision"><tspan x="320.31" y="247.63" font-family="Arial" font-size="10" fill="rgb(0, 0, 0)">NH</tspan><tspan font-family="Arial" dy="2.26" font-size="7.5" fill="rgb(0, 0, 0)">2</tspan></text></g><g><text xml:space="preserve" text-anchor="start" text-rendering="geometricPrecision"><tspan x="216.38" y="217.63" font-family="Arial" font-size="10" fill="rgb(0, 0, 0)">N</tspan><tspan x="216.38" y="238.53" font-family="Arial" font-size="10" fill="rgb(0, 0, 0)">H</tspan></text></g><g><text xml:space="preserve" text-anchor="start" text-rendering="geometricPrecision"><tspan x="190.4" y="172.63" font-family="Arial" font-size="10" fill="rgb(0, 0, 0)">NH</tspan></text></g><g><text xml:space="preserve" text-anchor="end" text-rendering="geometricPrecision"><tspan x="171.62" y="217.63" font-family="Arial" font-size="10" fill="rgb(0, 0, 0)">H</tspan><tspan font-family="Arial" dy="2.26" font-size="7.5" fill="rgb(0, 0, 0)">2</tspan><tspan font-family="Arial" dy="-2.26" font-size="10" fill="rgb(0, 0, 0)">N</tspan></text></g><g><text xml:space="preserve" text-anchor="start" text-rendering="geometricPrecision"><tspan x="345.99" y="172.63" font-family="Arial" font-size="10" fill="rgb(0, 0, 0)">O</tspan></text></g><g><text xml:space="preserve" text-anchor="start" text-rendering="geometricPrecision"><tspan x="371.97" y="217.63" font-family="Arial" font-size="10" fill="rgb(0, 0, 0)">OH</tspan></text></g><g id="WedgeBegin"><path d="M323.39 214.01 L323.39 214.01 L323.91 213.73 L324.43 214.01 L326.91 238.5 L323.91 238.5 L320.91 238.5 Z" stroke="rgb(0, 0, 0)" stroke-width="0" fill-rule="evenodd" stroke-linejoin="miter" fill="rgb(0, 0, 0)" shape-rendering="geometricPrecision" /></g><g id="Solid"><path d="M349.89 198.15 L349.89 198.15 L349.89 198.73 L349.89 199.31 L324.43 214.01 L323.91 213.73 L323.91 213.15 Z" stroke="rgb(0, 0, 0)" stroke-width="0" fill-rule="evenodd" stroke-linejoin="miter" fill="rgb(0, 0, 0)" shape-rendering="geometricPrecision" /></g><g id="Solid"><path d="M323.91 213.15 L323.91 213.15 L323.91 213.73 L323.39 214.01 L297.93 199.31 L297.93 198.73 L297.93 198.15 Z" stroke="rgb(0, 0, 0)" stroke-width="0" fill-rule="evenodd" stroke-linejoin="miter" fill="rgb(0, 0, 0)" shape-rendering="geometricPrecision" /></g><g id="Solid"><path d="M297.93 198.15 L297.93 198.15 L297.93 198.73 L297.93 199.31 L271.95 214.31 L271.95 213.73 L271.95 213.15 Z" stroke="rgb(0, 0, 0)" stroke-width="0" fill-rule="evenodd" stroke-linejoin="miter" fill="rgb(0, 0, 0)" shape-rendering="geometricPrecision" /></g><g id="Solid"><path d="M271.95 213.15 L271.95 213.15 L271.95 213.73 L271.95 214.31 L245.97 199.31 L245.97 198.73 L245.97 198.15 Z" stroke="rgb(0, 0, 0)" stroke-width="0" fill-rule="evenodd" stroke-linejoin="miter" fill="rgb(0, 0, 0)" shape-rendering="geometricPrecision" /></g><g id="Solid"><path d="M245.97 198.15 L245.97 198.15 L245.97 198.73 L245.97 199.31 L224.78 211.54 L224.53 211.1 L224.28 210.67 Z" stroke="rgb(0, 0, 0)" stroke-width="0" fill-rule="evenodd" stroke-linejoin="miter" fill="rgb(0, 0, 0)" shape-rendering="geometricPrecision" /></g><g id="Solid"><path d="M215.72 210.69 L215.72 210.69 L215.47 211.12 L215.22 211.56 L194 199.31 L194 198.73 L194 198.15 Z" stroke="rgb(0, 0, 0)" stroke-width="0" fill-rule="evenodd" stroke-linejoin="miter" fill="rgb(0, 0, 0)" shape-rendering="geometricPrecision" /></g><g id="Solid"><line x1="192.2" y1="198.73" x2="192.2" y2="174.7" stroke="rgb(0, 0, 0)" stroke-width="1" shape-rendering="auto" /><path d="M195.3 198.9 L195.3 198.9 L196.3 199.48 L196.3 174.7 L195.3 174.7 Z" stroke="rgb(0, 0, 0)" stroke-width="0" fill-rule="evenodd" stroke-linejoin="miter" fill="rgb(0, 0, 0)" shape-rendering="geometricPrecision" /><path d="M191.7 199.48 L191.7 199.48 L192.7 198.9 L192.7 174.7 L191.7 174.7 Z" stroke="rgb(0, 0, 0)" stroke-width="0" fill-rule="evenodd" stroke-linejoin="miter" fill="rgb(0, 0, 0)" shape-rendering="geometricPrecision" /></g><g id="Solid"><path d="M194 198.15 L194 198.15 L194 198.73 L194 199.31 L172.78 211.56 L172.53 211.12 L172.28 210.69 Z" stroke="rgb(0, 0, 0)" stroke-width="0" fill-rule="evenodd" stroke-linejoin="miter" fill="rgb(0, 0, 0)" shape-rendering="geometricPrecision" /></g><g id="Solid"><line x1="348.09" y1="198.73" x2="348.09" y2="174.8" stroke="rgb(0, 0, 0)" stroke-width="1" shape-rendering="auto" /><path d="M351.19 198.9 L351.19 198.9 L352.19 199.48 L352.19 174.8 L351.19 174.8 Z" stroke="rgb(0, 0, 0)" stroke-width="0" fill-rule="evenodd" stroke-linejoin="miter" fill="rgb(0, 0, 0)" shape-rendering="geometricPrecision" /><path d="M347.59 199.48 L347.59 199.48 L348.59 198.9 L348.59 174.8 L347.59 174.8 Z" stroke="rgb(0, 0, 0)" stroke-width="0" fill-rule="evenodd" stroke-linejoin="miter" fill="rgb(0, 0, 0)" shape-rendering="geometricPrecision" /></g><g id="Solid"><path d="M349.89 199.31 L349.89 199.31 L349.89 198.73 L349.89 198.15 L371.32 210.52 L371.07 210.96 L370.82 211.39 Z" stroke="rgb(0, 0, 0)" stroke-width="0" fill-rule="evenodd" stroke-linejoin="miter" fill="rgb(0, 0, 0)" shape-rendering="geometricPrecision" /></g></g></g></svg>