<?xml version="1.0"?><svg xmlns="http://www.w3.org/2000/svg" xmlns:xlink="http://www.w3.org/1999/xlink" viewBox="193.93 164.17 152.14 85.83" preserveAspectRatio="xMidYMid" width="100%" height="100%"><clipPath id="134"><rect x="0.5" y="0.5" width="539" height="719" /></clipPath><g id="drawing"><rect x="193.93" y="164.17" width="100%" height="100%" fill="rgb(255, 255, 255)" /><g id="page" clip-path="url(#134)"><g><text xml:space="preserve" text-anchor="start" text-rendering="geometricPrecision"><tspan x="279.39" y="247.63" font-family="Arial" font-size="10" fill="rgb(0, 0, 0)">NH</tspan><tspan font-family="Arial" dy="2.26" font-size="7.5" fill="rgb(0, 0, 0)">2</tspan></text></g><g><text xml:space="preserve" text-anchor="start" text-rendering="geometricPrecision"><tspan x="227.13" y="247.63" font-family="Arial" font-size="10" fill="rgb(0, 0, 0)">O</tspan></text></g><g><text xml:space="preserve" text-anchor="end" text-rendering="geometricPrecision"><tspan x="208.95" y="202.63" font-family="Arial" font-size="10" fill="rgb(0, 0, 0)">HO</tspan></text></g><g><text xml:space="preserve" text-anchor="start" text-rendering="geometricPrecision"><tspan x="305.07" y="172.63" font-family="Arial" font-size="10" fill="rgb(0, 0, 0)">O</tspan></text></g><g><text xml:space="preserve" text-anchor="start" text-rendering="geometricPrecision"><tspan x="331.05" y="217.63" font-family="Arial" font-size="10" fill="rgb(0, 0, 0)">OH</tspan></text></g><g id="WedgeBegin"><path d="M282.47 214.01 L282.47 214.01 L282.99 213.73 L283.51 214.01 L285.99 238.5 L282.99 238.5 L279.99 238.5 Z" stroke="rgb(0, 0, 0)" stroke-width="0" fill-rule="evenodd" stroke-linejoin="miter" fill="rgb(0, 0, 0)" shape-rendering="geometricPrecision" /></g><g id="Solid"><path d="M308.97 198.15 L308.97 198.15 L308.97 198.73 L308.97 199.31 L283.51 214.01 L282.99 213.73 L282.99 213.15 Z" stroke="rgb(0, 0, 0)" stroke-width="0" fill-rule="evenodd" stroke-linejoin="miter" fill="rgb(0, 0, 0)" shape-rendering="geometricPrecision" /></g><g id="Solid"><path d="M282.99 213.15 L282.99 213.15 L282.99 213.73 L282.47 214.01 L257.01 199.31 L257.01 198.73 L257.01 198.15 Z" stroke="rgb(0, 0, 0)" stroke-width="0" fill-rule="evenodd" stroke-linejoin="miter" fill="rgb(0, 0, 0)" shape-rendering="geometricPrecision" /></g><g id="Solid"><path d="M257.01 198.15 L257.01 198.15 L257.01 198.73 L257.01 199.31 L231.03 214.31 L231.03 213.73 L231.03 213.15 Z" stroke="rgb(0, 0, 0)" stroke-width="0" fill-rule="evenodd" stroke-linejoin="miter" fill="rgb(0, 0, 0)" shape-rendering="geometricPrecision" /></g><g id="Solid"><line x1="232.83" y1="213.73" x2="232.83" y2="238.4" stroke="rgb(0, 0, 0)" stroke-width="1" shape-rendering="auto" /><path d="M229.73 213.56 L229.73 213.56 L228.73 212.98 L228.73 238.4 L229.73 238.4 Z" stroke="rgb(0, 0, 0)" stroke-width="0" fill-rule="evenodd" stroke-linejoin="miter" fill="rgb(0, 0, 0)" shape-rendering="geometricPrecision" /><path d="M233.33 212.98 L233.33 212.98 L232.33 213.56 L232.33 238.4 L233.33 238.4 Z" stroke="rgb(0, 0, 0)" stroke-width="0" fill-rule="evenodd" stroke-linejoin="miter" fill="rgb(0, 0, 0)" shape-rendering="geometricPrecision" /></g><g id="Solid"><path d="M231.03 213.15 L231.03 213.15 L231.03 213.73 L231.03 214.31 L209.88 202.1 L210.13 201.66 L210.38 201.23 Z" stroke="rgb(0, 0, 0)" stroke-width="0" fill-rule="evenodd" stroke-linejoin="miter" fill="rgb(0, 0, 0)" shape-rendering="geometricPrecision" /></g><g id="Solid"><line x1="307.17" y1="198.73" x2="307.17" y2="174.8" stroke="rgb(0, 0, 0)" stroke-width="1" shape-rendering="auto" /><path d="M310.27 198.9 L310.27 198.9 L311.27 199.48 L311.27 174.8 L310.27 174.8 Z" stroke="rgb(0, 0, 0)" stroke-width="0" fill-rule="evenodd" stroke-linejoin="miter" fill="rgb(0, 0, 0)" shape-rendering="geometricPrecision" /><path d="M306.67 199.48 L306.67 199.48 L307.67 198.9 L307.67 174.8 L306.67 174.8 Z" stroke="rgb(0, 0, 0)" stroke-width="0" fill-rule="evenodd" stroke-linejoin="miter" fill="rgb(0, 0, 0)" shape-rendering="geometricPrecision" /></g><g id="Solid"><path d="M308.97 199.31 L308.97 199.31 L308.97 198.73 L308.97 198.15 L330.42 210.54 L330.17 210.97 L329.92 211.4 Z" stroke="rgb(0, 0, 0)" stroke-width="0" fill-rule="evenodd" stroke-linejoin="miter" fill="rgb(0, 0, 0)" shape-rendering="geometricPrecision" /></g></g></g></svg>