<?xml version="1.0"?><svg xmlns="http://www.w3.org/2000/svg" xmlns:xlink="http://www.w3.org/1999/xlink" viewBox="191.98 164.17 156.04 85.83" preserveAspectRatio="xMidYMid" width="100%" height="100%"><clipPath id="106"><rect x="0.5" y="0.5" width="539" height="719" /></clipPath><g id="drawing"><rect x="191.98" y="164.17" width="100%" height="100%" fill="rgb(255, 255, 255)" /><g id="page" clip-path="url(#106)"><g><text xml:space="preserve" text-anchor="start" text-rendering="geometricPrecision"><tspan x="281.34" y="247.63" font-family="Arial" font-size="10" fill="rgb(0, 0, 0)">NH</tspan><tspan font-family="Arial" dy="2.26" font-size="7.5" fill="rgb(0, 0, 0)">2</tspan></text></g><g><text xml:space="preserve" text-anchor="start" text-rendering="geometricPrecision"><tspan x="229.08" y="247.63" font-family="Arial" font-size="10" fill="rgb(0, 0, 0)">O</tspan></text></g><g><text xml:space="preserve" text-anchor="end" text-rendering="geometricPrecision"><tspan x="210.59" y="202.63" font-family="Arial" font-size="10" fill="rgb(0, 0, 0)">H</tspan><tspan font-family="Arial" dy="2.26" font-size="7.5" fill="rgb(0, 0, 0)">2</tspan><tspan font-family="Arial" dy="-2.26" font-size="10" fill="rgb(0, 0, 0)">N</tspan></text></g><g><text xml:space="preserve" text-anchor="start" text-rendering="geometricPrecision"><tspan x="307.02" y="172.63" font-family="Arial" font-size="10" fill="rgb(0, 0, 0)">O</tspan></text></g><g><text xml:space="preserve" text-anchor="start" text-rendering="geometricPrecision"><tspan x="333" y="217.63" font-family="Arial" font-size="10" fill="rgb(0, 0, 0)">OH</tspan></text></g><g id="WedgeBegin"><path d="M284.42 214.01 L284.42 214.01 L284.94 213.73 L285.46 214.01 L287.94 238.5 L284.94 238.5 L281.94 238.5 Z" stroke="rgb(0, 0, 0)" stroke-width="0" fill-rule="evenodd" stroke-linejoin="miter" fill="rgb(0, 0, 0)" shape-rendering="geometricPrecision" /></g><g id="Solid"><path d="M310.92 198.15 L310.92 198.15 L310.92 198.73 L310.92 199.31 L285.46 214.01 L284.94 213.73 L284.94 213.15 Z" stroke="rgb(0, 0, 0)" stroke-width="0" fill-rule="evenodd" stroke-linejoin="miter" fill="rgb(0, 0, 0)" shape-rendering="geometricPrecision" /></g><g id="Solid"><path d="M284.94 213.15 L284.94 213.15 L284.94 213.73 L284.42 214.01 L258.96 199.31 L258.96 198.73 L258.96 198.15 Z" stroke="rgb(0, 0, 0)" stroke-width="0" fill-rule="evenodd" stroke-linejoin="miter" fill="rgb(0, 0, 0)" shape-rendering="geometricPrecision" /></g><g id="Solid"><path d="M258.96 198.15 L258.96 198.15 L258.96 198.73 L258.96 199.31 L232.98 214.31 L232.98 213.73 L232.98 213.15 Z" stroke="rgb(0, 0, 0)" stroke-width="0" fill-rule="evenodd" stroke-linejoin="miter" fill="rgb(0, 0, 0)" shape-rendering="geometricPrecision" /></g><g id="Solid"><line x1="234.78" y1="213.73" x2="234.78" y2="238.4" stroke="rgb(0, 0, 0)" stroke-width="1" shape-rendering="auto" /><path d="M231.68 213.56 L231.68 213.56 L230.68 212.98 L230.68 238.4 L231.68 238.4 Z" stroke="rgb(0, 0, 0)" stroke-width="0" fill-rule="evenodd" stroke-linejoin="miter" fill="rgb(0, 0, 0)" shape-rendering="geometricPrecision" /><path d="M235.28 212.98 L235.28 212.98 L234.28 213.56 L234.28 238.4 L235.28 238.4 Z" stroke="rgb(0, 0, 0)" stroke-width="0" fill-rule="evenodd" stroke-linejoin="miter" fill="rgb(0, 0, 0)" shape-rendering="geometricPrecision" /></g><g id="Solid"><path d="M232.98 213.15 L232.98 213.15 L232.98 213.73 L232.98 214.31 L211.28 201.78 L211.53 201.35 L211.78 200.92 Z" stroke="rgb(0, 0, 0)" stroke-width="0" fill-rule="evenodd" stroke-linejoin="miter" fill="rgb(0, 0, 0)" shape-rendering="geometricPrecision" /></g><g id="Solid"><line x1="309.12" y1="198.73" x2="309.12" y2="174.8" stroke="rgb(0, 0, 0)" stroke-width="1" shape-rendering="auto" /><path d="M312.22 198.9 L312.22 198.9 L313.22 199.48 L313.22 174.8 L312.22 174.8 Z" stroke="rgb(0, 0, 0)" stroke-width="0" fill-rule="evenodd" stroke-linejoin="miter" fill="rgb(0, 0, 0)" shape-rendering="geometricPrecision" /><path d="M308.62 199.48 L308.62 199.48 L309.62 198.9 L309.62 174.8 L308.62 174.8 Z" stroke="rgb(0, 0, 0)" stroke-width="0" fill-rule="evenodd" stroke-linejoin="miter" fill="rgb(0, 0, 0)" shape-rendering="geometricPrecision" /></g><g id="Solid"><path d="M310.92 199.31 L310.92 199.31 L310.92 198.73 L310.92 198.15 L332.32 210.51 L332.07 210.94 L331.82 211.37 Z" stroke="rgb(0, 0, 0)" stroke-width="0" fill-rule="evenodd" stroke-linejoin="miter" fill="rgb(0, 0, 0)" shape-rendering="geometricPrecision" /></g></g></g></svg>