<?xml version="1.0"?><svg xmlns="http://www.w3.org/2000/svg" xmlns:xlink="http://www.w3.org/1999/xlink" viewBox="207.19 164.17 125.62 85.83" preserveAspectRatio="xMidYMid" width="100%" height="100%"><clipPath id="156"><rect x="0.5" y="0.5" width="539" height="719" /></clipPath><g id="drawing"><rect x="207.19" y="164.17" width="100%" height="100%" fill="rgb(255, 255, 255)" /><g id="page" clip-path="url(#156)"><g><text xml:space="preserve" text-anchor="start" text-rendering="geometricPrecision"><tspan x="266.12" y="247.63" font-family="Arial" font-size="10" fill="rgb(0, 0, 0)">NH</tspan><tspan font-family="Arial" dy="2.26" font-size="7.5" fill="rgb(0, 0, 0)">2</tspan></text></g><g><text xml:space="preserve" text-anchor="end" text-rendering="geometricPrecision"><tspan x="221.09" y="217.63" font-family="Arial" font-size="10" fill="rgb(0, 0, 0)">HS</tspan></text></g><g><text xml:space="preserve" text-anchor="start" text-rendering="geometricPrecision"><tspan x="291.8" y="172.63" font-family="Arial" font-size="10" fill="rgb(0, 0, 0)">O</tspan></text></g><g><text xml:space="preserve" text-anchor="start" text-rendering="geometricPrecision"><tspan x="317.78" y="217.63" font-family="Arial" font-size="10" fill="rgb(0, 0, 0)">OH</tspan></text></g><g id="WedgeBegin"><path d="M269.2 214.01 L269.2 214.01 L269.72 213.73 L270.24 214.01 L272.72 238.5 L269.72 238.5 L266.72 238.5 Z" stroke="rgb(0, 0, 0)" stroke-width="0" fill-rule="evenodd" stroke-linejoin="miter" fill="rgb(0, 0, 0)" shape-rendering="geometricPrecision" /></g><g id="Solid"><path d="M295.7 198.15 L295.7 198.15 L295.7 198.73 L295.7 199.31 L270.24 214.01 L269.72 213.73 L269.72 213.15 Z" stroke="rgb(0, 0, 0)" stroke-width="0" fill-rule="evenodd" stroke-linejoin="miter" fill="rgb(0, 0, 0)" shape-rendering="geometricPrecision" /></g><g id="Solid"><path d="M269.72 213.15 L269.72 213.15 L269.72 213.73 L269.2 214.01 L243.74 199.31 L243.74 198.73 L243.74 198.15 Z" stroke="rgb(0, 0, 0)" stroke-width="0" fill-rule="evenodd" stroke-linejoin="miter" fill="rgb(0, 0, 0)" shape-rendering="geometricPrecision" /></g><g id="Solid"><path d="M243.74 198.15 L243.74 198.15 L243.74 198.73 L243.74 199.31 L222.38 211.64 L222.13 211.21 L221.88 210.77 Z" stroke="rgb(0, 0, 0)" stroke-width="0" fill-rule="evenodd" stroke-linejoin="miter" fill="rgb(0, 0, 0)" shape-rendering="geometricPrecision" /></g><g id="Solid"><line x1="293.9" y1="198.73" x2="293.9" y2="174.8" stroke="rgb(0, 0, 0)" stroke-width="1" shape-rendering="auto" /><path d="M297 198.9 L297 198.9 L298 199.48 L298 174.8 L297 174.8 Z" stroke="rgb(0, 0, 0)" stroke-width="0" fill-rule="evenodd" stroke-linejoin="miter" fill="rgb(0, 0, 0)" shape-rendering="geometricPrecision" /><path d="M293.4 199.48 L293.4 199.48 L294.4 198.9 L294.4 174.8 L293.4 174.8 Z" stroke="rgb(0, 0, 0)" stroke-width="0" fill-rule="evenodd" stroke-linejoin="miter" fill="rgb(0, 0, 0)" shape-rendering="geometricPrecision" /></g><g id="Solid"><path d="M295.7 199.31 L295.7 199.31 L295.7 198.73 L295.7 198.15 L317.12 210.52 L316.87 210.95 L316.62 211.38 Z" stroke="rgb(0, 0, 0)" stroke-width="0" fill-rule="evenodd" stroke-linejoin="miter" fill="rgb(0, 0, 0)" shape-rendering="geometricPrecision" /></g></g></g></svg>