<?xml version="1.0"?><svg xmlns="http://www.w3.org/2000/svg" xmlns:xlink="http://www.w3.org/1999/xlink" viewBox="178.99 164.17 182.02 85.83" preserveAspectRatio="xMidYMid" width="100%" height="100%"><clipPath id="188"><rect x="0.5" y="0.5" width="539" height="719" /></clipPath><g id="drawing"><rect x="178.99" y="164.17" width="100%" height="100%" fill="rgb(255, 255, 255)" /><g id="page" clip-path="url(#188)"><g><text xml:space="preserve" text-anchor="start" text-rendering="geometricPrecision"><tspan x="294.33" y="247.63" font-family="Arial" font-size="10" fill="rgb(0, 0, 0)">NH</tspan><tspan font-family="Arial" dy="2.26" font-size="7.5" fill="rgb(0, 0, 0)">2</tspan></text></g><g><text xml:space="preserve" text-anchor="start" text-rendering="geometricPrecision"><tspan x="216.08" y="172.63" font-family="Arial" font-size="10" fill="rgb(0, 0, 0)">O</tspan></text></g><g><text xml:space="preserve" text-anchor="end" text-rendering="geometricPrecision"><tspan x="197.6" y="217.63" font-family="Arial" font-size="10" fill="rgb(0, 0, 0)">H</tspan><tspan font-family="Arial" dy="2.26" font-size="7.5" fill="rgb(0, 0, 0)">2</tspan><tspan font-family="Arial" dy="-2.26" font-size="10" fill="rgb(0, 0, 0)">N</tspan></text></g><g><text xml:space="preserve" text-anchor="start" text-rendering="geometricPrecision"><tspan x="320.01" y="172.63" font-family="Arial" font-size="10" fill="rgb(0, 0, 0)">O</tspan></text></g><g><text xml:space="preserve" text-anchor="start" text-rendering="geometricPrecision"><tspan x="345.99" y="217.63" font-family="Arial" font-size="10" fill="rgb(0, 0, 0)">OH</tspan></text></g><g id="WedgeBegin"><path d="M297.41 214.01 L297.41 214.01 L297.93 213.73 L298.45 214.01 L300.93 238.5 L297.93 238.5 L294.93 238.5 Z" stroke="rgb(0, 0, 0)" stroke-width="0" fill-rule="evenodd" stroke-linejoin="miter" fill="rgb(0, 0, 0)" shape-rendering="geometricPrecision" /></g><g id="Solid"><path d="M323.91 198.15 L323.91 198.15 L323.91 198.73 L323.91 199.31 L298.45 214.01 L297.93 213.73 L297.93 213.15 Z" stroke="rgb(0, 0, 0)" stroke-width="0" fill-rule="evenodd" stroke-linejoin="miter" fill="rgb(0, 0, 0)" shape-rendering="geometricPrecision" /></g><g id="Solid"><path d="M297.93 213.15 L297.93 213.15 L297.93 213.73 L297.41 214.01 L271.95 199.31 L271.95 198.73 L271.95 198.15 Z" stroke="rgb(0, 0, 0)" stroke-width="0" fill-rule="evenodd" stroke-linejoin="miter" fill="rgb(0, 0, 0)" shape-rendering="geometricPrecision" /></g><g id="Solid"><path d="M271.95 198.15 L271.95 198.15 L271.95 198.73 L271.95 199.31 L245.97 214.31 L245.97 213.73 L245.97 213.15 Z" stroke="rgb(0, 0, 0)" stroke-width="0" fill-rule="evenodd" stroke-linejoin="miter" fill="rgb(0, 0, 0)" shape-rendering="geometricPrecision" /></g><g id="Solid"><path d="M245.97 213.15 L245.97 213.15 L245.97 213.73 L245.97 214.31 L219.98 199.31 L219.98 198.73 L219.98 198.15 Z" stroke="rgb(0, 0, 0)" stroke-width="0" fill-rule="evenodd" stroke-linejoin="miter" fill="rgb(0, 0, 0)" shape-rendering="geometricPrecision" /></g><g id="Solid"><line x1="218.18" y1="198.73" x2="218.18" y2="174.8" stroke="rgb(0, 0, 0)" stroke-width="1" shape-rendering="auto" /><path d="M221.28 198.9 L221.28 198.9 L222.28 199.48 L222.28 174.8 L221.28 174.8 Z" stroke="rgb(0, 0, 0)" stroke-width="0" fill-rule="evenodd" stroke-linejoin="miter" fill="rgb(0, 0, 0)" shape-rendering="geometricPrecision" /><path d="M217.68 199.48 L217.68 199.48 L218.68 198.9 L218.68 174.8 L217.68 174.8 Z" stroke="rgb(0, 0, 0)" stroke-width="0" fill-rule="evenodd" stroke-linejoin="miter" fill="rgb(0, 0, 0)" shape-rendering="geometricPrecision" /></g><g id="Solid"><path d="M219.98 198.15 L219.98 198.15 L219.98 198.73 L219.98 199.31 L198.78 211.55 L198.53 211.11 L198.28 210.68 Z" stroke="rgb(0, 0, 0)" stroke-width="0" fill-rule="evenodd" stroke-linejoin="miter" fill="rgb(0, 0, 0)" shape-rendering="geometricPrecision" /></g><g id="Solid"><line x1="322.11" y1="198.73" x2="322.11" y2="174.8" stroke="rgb(0, 0, 0)" stroke-width="1" shape-rendering="auto" /><path d="M325.21 198.9 L325.21 198.9 L326.21 199.48 L326.21 174.8 L325.21 174.8 Z" stroke="rgb(0, 0, 0)" stroke-width="0" fill-rule="evenodd" stroke-linejoin="miter" fill="rgb(0, 0, 0)" shape-rendering="geometricPrecision" /><path d="M321.61 199.48 L321.61 199.48 L322.61 198.9 L322.61 174.8 L321.61 174.8 Z" stroke="rgb(0, 0, 0)" stroke-width="0" fill-rule="evenodd" stroke-linejoin="miter" fill="rgb(0, 0, 0)" shape-rendering="geometricPrecision" /></g><g id="Solid"><path d="M323.91 199.31 L323.91 199.31 L323.91 198.73 L323.91 198.15 L345.32 210.51 L345.07 210.95 L344.82 211.38 Z" stroke="rgb(0, 0, 0)" stroke-width="0" fill-rule="evenodd" stroke-linejoin="miter" fill="rgb(0, 0, 0)" shape-rendering="geometricPrecision" /></g></g></g></svg>