<?xml version="1.0"?><svg xmlns="http://www.w3.org/2000/svg" xmlns:xlink="http://www.w3.org/1999/xlink" viewBox="217.96 180.22 104.08 53.58" preserveAspectRatio="xMidYMid" width="100%" height="100%"><clipPath id="330"><rect x="0.5" y="0.5" width="539" height="719" /></clipPath><g id="drawing"><rect x="217.96" y="180.22" width="100%" height="100%" fill="rgb(255, 255, 255)" /><g id="page" clip-path="url(#330)"><g><text xml:space="preserve" text-anchor="end" text-rendering="geometricPrecision"><tspan x="236.58" y="218.68" font-family="Arial" font-size="10" fill="rgb(0, 0, 0)">H</tspan><tspan font-family="Arial" dy="2.26" font-size="7.5" fill="rgb(0, 0, 0)">2</tspan><tspan font-family="Arial" dy="-2.26" font-size="10" fill="rgb(0, 0, 0)">N</tspan></text></g><g><text xml:space="preserve" text-anchor="start" text-rendering="geometricPrecision"><tspan x="281.04" y="188.68" font-family="Arial" font-size="10" fill="rgb(0, 0, 0)">O</tspan></text></g><g><text xml:space="preserve" text-anchor="start" text-rendering="geometricPrecision"><tspan x="307.02" y="233.68" font-family="Arial" font-size="10" fill="rgb(0, 0, 0)">OH</tspan></text></g><g id="Solid"><path d="M237.28 217.84 L237.28 217.84 L237.53 217.41 L237.78 216.98 L258.96 229.2 L258.96 229.78 L258.96 230.36 Z" stroke="rgb(0, 0, 0)" stroke-width="0" fill-rule="evenodd" stroke-linejoin="miter" fill="rgb(0, 0, 0)" shape-rendering="geometricPrecision" /></g><g id="Solid"><path d="M284.94 214.2 L284.94 214.2 L284.94 214.78 L284.94 215.36 L258.96 230.36 L258.96 229.78 L258.96 229.2 Z" stroke="rgb(0, 0, 0)" stroke-width="0" fill-rule="evenodd" stroke-linejoin="miter" fill="rgb(0, 0, 0)" shape-rendering="geometricPrecision" /></g><g id="Solid"><line x1="283.14" y1="214.78" x2="283.14" y2="190.9" stroke="rgb(0, 0, 0)" stroke-width="1" shape-rendering="auto" /><path d="M286.24 214.95 L286.24 214.95 L287.24 215.53 L287.24 190.9 L286.24 190.9 Z" stroke="rgb(0, 0, 0)" stroke-width="0" fill-rule="evenodd" stroke-linejoin="miter" fill="rgb(0, 0, 0)" shape-rendering="geometricPrecision" /><path d="M282.64 215.53 L282.64 215.53 L283.64 214.95 L283.64 190.9 L282.64 190.9 Z" stroke="rgb(0, 0, 0)" stroke-width="0" fill-rule="evenodd" stroke-linejoin="miter" fill="rgb(0, 0, 0)" shape-rendering="geometricPrecision" /></g><g id="Solid"><path d="M284.94 215.36 L284.94 215.36 L284.94 214.78 L284.94 214.2 L306.32 226.55 L306.07 226.98 L305.82 227.41 Z" stroke="rgb(0, 0, 0)" stroke-width="0" fill-rule="evenodd" stroke-linejoin="miter" fill="rgb(0, 0, 0)" shape-rendering="geometricPrecision" /></g></g></g></svg>