<?xml version="1.0"?><svg xmlns="http://www.w3.org/2000/svg" xmlns:xlink="http://www.w3.org/1999/xlink" viewBox="188.43 162.23 163.14 89.54" preserveAspectRatio="xMidYMid" width="100%" height="100%"><clipPath id="364"><rect x="0.5" y="0.5" width="539" height="719" /></clipPath><g id="drawing"><rect x="188.43" y="162.23" width="100%" height="100%" fill="rgb(255, 255, 255)" /><g id="page" clip-path="url(#364)"><g><text xml:space="preserve" text-anchor="start" text-rendering="geometricPrecision"><tspan x="284.89" y="245.69" font-family="Arial" font-size="10" fill="rgb(0, 0, 0)">NH</tspan><tspan font-family="Arial" dy="2.26" font-size="7.5" fill="rgb(0, 0, 0)">2</tspan></text></g><g><text xml:space="preserve" text-anchor="end" text-rendering="geometricPrecision"><tspan x="207.64" y="251.77" font-family="Arial" font-size="10" fill="rgb(0, 0, 0)">HN</tspan></text></g><g><text xml:space="preserve" text-anchor="start" text-rendering="geometricPrecision"><tspan x="205.52" y="203.49" font-family="Arial" font-size="10" fill="rgb(0, 0, 0)">N</tspan></text></g><g><text xml:space="preserve" text-anchor="start" text-rendering="geometricPrecision"><tspan x="310.57" y="170.69" font-family="Arial" font-size="10" fill="rgb(0, 0, 0)">O</tspan></text></g><g><text xml:space="preserve" text-anchor="start" text-rendering="geometricPrecision"><tspan x="336.55" y="215.69" font-family="Arial" font-size="10" fill="rgb(0, 0, 0)">OH</tspan></text></g><g id="WedgeBegin"><path d="M287.97 212.07 L287.97 212.07 L288.49 211.79 L289.01 212.07 L291.49 236.6 L288.49 236.6 L285.49 236.6 Z" stroke="rgb(0, 0, 0)" stroke-width="0" fill-rule="evenodd" stroke-linejoin="miter" fill="rgb(0, 0, 0)" shape-rendering="geometricPrecision" /></g><g id="Solid"><path d="M314.47 196.21 L314.47 196.21 L314.47 196.79 L314.47 197.37 L289.01 212.07 L288.49 211.79 L288.49 211.21 Z" stroke="rgb(0, 0, 0)" stroke-width="0" fill-rule="evenodd" stroke-linejoin="miter" fill="rgb(0, 0, 0)" shape-rendering="geometricPrecision" /></g><g id="Solid"><path d="M288.49 211.21 L288.49 211.21 L288.49 211.79 L287.97 212.07 L262.51 197.37 L262.51 196.79 L262.51 196.21 Z" stroke="rgb(0, 0, 0)" stroke-width="0" fill-rule="evenodd" stroke-linejoin="miter" fill="rgb(0, 0, 0)" shape-rendering="geometricPrecision" /></g><g id="Solid"><path d="M262.51 196.21 L262.51 196.21 L262.51 196.79 L262.51 197.37 L237 212.1 L236.53 211.79 L236.5 211.23 Z" stroke="rgb(0, 0, 0)" stroke-width="0" fill-rule="evenodd" stroke-linejoin="miter" fill="rgb(0, 0, 0)" shape-rendering="geometricPrecision" /></g><g id="Solid"><path d="M235.99 212.1 L235.99 212.1 L236.53 211.79 L237 212.1 L233.85 242.04 L233.39 241.63 L232.93 241.22 Z" stroke="rgb(0, 0, 0)" stroke-width="0" fill-rule="evenodd" stroke-linejoin="miter" fill="rgb(0, 0, 0)" shape-rendering="geometricPrecision" /><line x1="232.68" y1="214.02" x2="230.08" y2="238.65" stroke="rgb(0, 0, 0)" stroke-width="1" shape-rendering="auto" /></g><g id="Solid"><path d="M232.93 241.22 L232.93 241.22 L233.39 241.63 L233.85 242.04 L208.96 247.34 L208.86 246.85 L208.75 246.36 Z" stroke="rgb(0, 0, 0)" stroke-width="0" fill-rule="evenodd" stroke-linejoin="miter" fill="rgb(0, 0, 0)" shape-rendering="geometricPrecision" /></g><g id="Solid"><path d="M201.64 242.72 L201.64 242.72 L201.21 242.97 L200.78 243.22 L188.43 221.82 L189.04 221.88 L189.65 221.94 Z" stroke="rgb(0, 0, 0)" stroke-width="0" fill-rule="evenodd" stroke-linejoin="miter" fill="rgb(0, 0, 0)" shape-rendering="geometricPrecision" /></g><g id="Solid"><path d="M189.65 221.94 L189.65 221.94 L189.04 221.88 L188.43 221.82 L204.59 203.87 L204.96 204.21 L205.33 204.54 Z" stroke="rgb(0, 0, 0)" stroke-width="0" fill-rule="evenodd" stroke-linejoin="miter" fill="rgb(0, 0, 0)" shape-rendering="geometricPrecision" /><line x1="193.47" y1="222.35" x2="207.64" y2="206.62" stroke="rgb(0, 0, 0)" stroke-width="1" shape-rendering="auto" /></g><g id="Solid"><path d="M236.5 211.23 L236.5 211.23 L236.53 211.79 L235.99 212.1 L213.62 202.14 L213.83 201.69 L214.03 201.23 Z" stroke="rgb(0, 0, 0)" stroke-width="0" fill-rule="evenodd" stroke-linejoin="miter" fill="rgb(0, 0, 0)" shape-rendering="geometricPrecision" /></g><g id="Solid"><line x1="312.67" y1="196.79" x2="312.67" y2="172.9" stroke="rgb(0, 0, 0)" stroke-width="1" shape-rendering="auto" /><path d="M315.77 196.96 L315.77 196.96 L316.77 197.54 L316.77 172.9 L315.77 172.9 Z" stroke="rgb(0, 0, 0)" stroke-width="0" fill-rule="evenodd" stroke-linejoin="miter" fill="rgb(0, 0, 0)" shape-rendering="geometricPrecision" /><path d="M312.17 197.54 L312.17 197.54 L313.17 196.96 L313.17 172.9 L312.17 172.9 Z" stroke="rgb(0, 0, 0)" stroke-width="0" fill-rule="evenodd" stroke-linejoin="miter" fill="rgb(0, 0, 0)" shape-rendering="geometricPrecision" /></g><g id="Solid"><path d="M314.47 197.37 L314.47 197.37 L314.47 196.79 L314.47 196.21 L335.92 208.6 L335.67 209.03 L335.42 209.46 Z" stroke="rgb(0, 0, 0)" stroke-width="0" fill-rule="evenodd" stroke-linejoin="miter" fill="rgb(0, 0, 0)" shape-rendering="geometricPrecision" /></g></g></g></svg>