<?xml version="1.0"?><svg xmlns="http://www.w3.org/2000/svg" xmlns:xlink="http://www.w3.org/1999/xlink" viewBox="199.36 164.17 141.28 85.83" preserveAspectRatio="xMidYMid" width="100%" height="100%"><clipPath id="392"><rect x="0.5" y="0.5" width="539" height="719" /></clipPath><g id="drawing"><rect x="199.36" y="164.17" width="100%" height="100%" fill="rgb(255, 255, 255)" /><g id="page" clip-path="url(#392)"><g><text xml:space="preserve" text-anchor="start" text-rendering="geometricPrecision"><tspan x="273.95" y="247.63" font-family="Arial" font-size="10" fill="rgb(0, 0, 0)">NH</tspan><tspan font-family="Arial" dy="2.26" font-size="7.5" fill="rgb(0, 0, 0)">2</tspan></text></g><g><text xml:space="preserve" text-anchor="start" text-rendering="geometricPrecision"><tspan x="299.64" y="172.63" font-family="Arial" font-size="10" fill="rgb(0, 0, 0)">O</tspan></text></g><g><text xml:space="preserve" text-anchor="start" text-rendering="geometricPrecision"><tspan x="325.62" y="217.63" font-family="Arial" font-size="10" fill="rgb(0, 0, 0)">OH</tspan></text></g><g id="WedgeBegin"><path d="M277.03 214.01 L277.03 214.01 L277.55 213.73 L278.07 214.01 L280.55 238.5 L277.55 238.5 L274.55 238.5 Z" stroke="rgb(0, 0, 0)" stroke-width="0" fill-rule="evenodd" stroke-linejoin="miter" fill="rgb(0, 0, 0)" shape-rendering="geometricPrecision" /></g><g id="Solid"><path d="M303.54 198.15 L303.54 198.15 L303.54 198.73 L303.54 199.31 L278.07 214.01 L277.55 213.73 L277.55 213.15 Z" stroke="rgb(0, 0, 0)" stroke-width="0" fill-rule="evenodd" stroke-linejoin="miter" fill="rgb(0, 0, 0)" shape-rendering="geometricPrecision" /></g><g id="Solid"><path d="M277.55 213.15 L277.55 213.15 L277.55 213.73 L277.03 214.01 L251.57 199.31 L251.57 198.73 L251.57 198.15 Z" stroke="rgb(0, 0, 0)" stroke-width="0" fill-rule="evenodd" stroke-linejoin="miter" fill="rgb(0, 0, 0)" shape-rendering="geometricPrecision" /></g><g id="Solid"><path d="M251.57 198.15 L251.57 198.15 L251.57 198.73 L251.57 199.31 L225.59 214.31 L225.59 213.73 L225.59 213.15 Z" stroke="rgb(0, 0, 0)" stroke-width="0" fill-rule="evenodd" stroke-linejoin="miter" fill="rgb(0, 0, 0)" shape-rendering="geometricPrecision" /></g><g id="Solid"><path d="M225.59 213.15 L225.59 213.15 L225.59 213.73 L225.59 214.31 L199.36 199.16 L199.61 198.73 L199.86 198.3 Z" stroke="rgb(0, 0, 0)" stroke-width="0" fill-rule="evenodd" stroke-linejoin="miter" fill="rgb(0, 0, 0)" shape-rendering="geometricPrecision" /></g><g id="Wedged Hash Begin Bond"><path d="M252.07 198.73 L252.07 198.73 L251.07 198.73 L250.99 197.73 L252.15 197.73 Z" stroke="rgb(0, 0, 0)" stroke-width="0" fill-rule="evenodd" stroke-linejoin="miter" fill="rgb(0, 0, 0)" shape-rendering="geometricPrecision" /><path d="M252.31 195.83 L252.31 195.83 L250.83 195.83 L250.74 194.83 L252.4 194.83 Z" stroke="rgb(0, 0, 0)" stroke-width="0" fill-rule="evenodd" stroke-linejoin="miter" fill="rgb(0, 0, 0)" shape-rendering="geometricPrecision" /><path d="M252.55 192.93 L252.55 192.93 L250.59 192.93 L250.5 191.93 L252.64 191.93 Z" stroke="rgb(0, 0, 0)" stroke-width="0" fill-rule="evenodd" stroke-linejoin="miter" fill="rgb(0, 0, 0)" shape-rendering="geometricPrecision" /><path d="M252.8 190.03 L252.8 190.03 L250.34 190.03 L250.26 189.03 L252.88 189.03 Z" stroke="rgb(0, 0, 0)" stroke-width="0" fill-rule="evenodd" stroke-linejoin="miter" fill="rgb(0, 0, 0)" shape-rendering="geometricPrecision" /><path d="M253.04 187.13 L253.04 187.13 L250.1 187.13 L250.02 186.13 L253.12 186.13 Z" stroke="rgb(0, 0, 0)" stroke-width="0" fill-rule="evenodd" stroke-linejoin="miter" fill="rgb(0, 0, 0)" shape-rendering="geometricPrecision" /><path d="M253.28 184.23 L253.28 184.23 L249.86 184.23 L249.78 183.23 L253.36 183.23 Z" stroke="rgb(0, 0, 0)" stroke-width="0" fill-rule="evenodd" stroke-linejoin="miter" fill="rgb(0, 0, 0)" shape-rendering="geometricPrecision" /><path d="M253.52 181.33 L253.52 181.33 L249.62 181.33 L249.54 180.33 L253.6 180.33 Z" stroke="rgb(0, 0, 0)" stroke-width="0" fill-rule="evenodd" stroke-linejoin="miter" fill="rgb(0, 0, 0)" shape-rendering="geometricPrecision" /><path d="M253.76 178.43 L253.76 178.43 L249.38 178.43 L249.3 177.43 L253.84 177.43 Z" stroke="rgb(0, 0, 0)" stroke-width="0" fill-rule="evenodd" stroke-linejoin="miter" fill="rgb(0, 0, 0)" shape-rendering="geometricPrecision" /><path d="M254 175.53 L254 175.53 L249.14 175.53 L249.05 174.53 L254.09 174.53 Z" stroke="rgb(0, 0, 0)" stroke-width="0" fill-rule="evenodd" stroke-linejoin="miter" fill="rgb(0, 0, 0)" shape-rendering="geometricPrecision" /><path d="M254.24 172.63 L254.24 172.63 L248.9 172.63 L248.81 171.63 L254.33 171.63 Z" stroke="rgb(0, 0, 0)" stroke-width="0" fill-rule="evenodd" stroke-linejoin="miter" fill="rgb(0, 0, 0)" shape-rendering="geometricPrecision" /><path d="M254.49 169.73 L254.49 169.73 L248.65 169.73 L248.57 168.73 L254.57 168.73 Z" stroke="rgb(0, 0, 0)" stroke-width="0" fill-rule="evenodd" stroke-linejoin="miter" fill="rgb(0, 0, 0)" shape-rendering="geometricPrecision" /></g><g id="Solid"><line x1="301.74" y1="198.73" x2="301.74" y2="174.8" stroke="rgb(0, 0, 0)" stroke-width="1" shape-rendering="auto" /><path d="M304.84 198.9 L304.84 198.9 L305.84 199.48 L305.84 174.8 L304.84 174.8 Z" stroke="rgb(0, 0, 0)" stroke-width="0" fill-rule="evenodd" stroke-linejoin="miter" fill="rgb(0, 0, 0)" shape-rendering="geometricPrecision" /><path d="M301.24 199.48 L301.24 199.48 L302.24 198.9 L302.24 174.8 L301.24 174.8 Z" stroke="rgb(0, 0, 0)" stroke-width="0" fill-rule="evenodd" stroke-linejoin="miter" fill="rgb(0, 0, 0)" shape-rendering="geometricPrecision" /></g><g id="Solid"><path d="M303.54 199.31 L303.54 199.31 L303.54 198.73 L303.54 198.15 L324.92 210.5 L324.67 210.93 L324.42 211.36 Z" stroke="rgb(0, 0, 0)" stroke-width="0" fill-rule="evenodd" stroke-linejoin="miter" fill="rgb(0, 0, 0)" shape-rendering="geometricPrecision" /></g></g></g></svg>