<?xml version="1.0"?><svg xmlns="http://www.w3.org/2000/svg" xmlns:xlink="http://www.w3.org/1999/xlink" viewBox="186.37 164.17 167.26 85.83" preserveAspectRatio="xMidYMid" width="100%" height="100%"><clipPath id="480"><rect x="0.5" y="0.5" width="539" height="719" /></clipPath><g id="drawing"><rect x="186.37" y="164.17" width="100%" height="100%" fill="rgb(255, 255, 255)" /><g id="page" clip-path="url(#480)"><g><text xml:space="preserve" text-anchor="start" text-rendering="geometricPrecision"><tspan x="286.94" y="247.63" font-family="Arial" font-size="10" fill="rgb(0, 0, 0)">NH</tspan><tspan font-family="Arial" dy="2.26" font-size="7.5" fill="rgb(0, 0, 0)">2</tspan></text></g><g><text xml:space="preserve" text-anchor="start" text-rendering="geometricPrecision"><tspan x="209.28" y="202.63" font-family="Arial" font-size="10" fill="rgb(0, 0, 0)">S</tspan></text></g><g><text xml:space="preserve" text-anchor="start" text-rendering="geometricPrecision"><tspan x="312.63" y="172.63" font-family="Arial" font-size="10" fill="rgb(0, 0, 0)">O</tspan></text></g><g><text xml:space="preserve" text-anchor="start" text-rendering="geometricPrecision"><tspan x="338.61" y="217.63" font-family="Arial" font-size="10" fill="rgb(0, 0, 0)">OH</tspan></text></g><g id="WedgeBegin"><path d="M290.02 214.01 L290.02 214.01 L290.54 213.73 L291.06 214.01 L293.54 238.5 L290.54 238.5 L287.54 238.5 Z" stroke="rgb(0, 0, 0)" stroke-width="0" fill-rule="evenodd" stroke-linejoin="miter" fill="rgb(0, 0, 0)" shape-rendering="geometricPrecision" /></g><g id="Solid"><path d="M316.53 198.15 L316.53 198.15 L316.53 198.73 L316.53 199.31 L291.06 214.01 L290.54 213.73 L290.54 213.15 Z" stroke="rgb(0, 0, 0)" stroke-width="0" fill-rule="evenodd" stroke-linejoin="miter" fill="rgb(0, 0, 0)" shape-rendering="geometricPrecision" /></g><g id="Solid"><path d="M290.54 213.15 L290.54 213.15 L290.54 213.73 L290.02 214.01 L264.56 199.31 L264.56 198.73 L264.56 198.15 Z" stroke="rgb(0, 0, 0)" stroke-width="0" fill-rule="evenodd" stroke-linejoin="miter" fill="rgb(0, 0, 0)" shape-rendering="geometricPrecision" /></g><g id="Solid"><path d="M264.56 198.15 L264.56 198.15 L264.56 198.73 L264.56 199.31 L238.58 214.31 L238.58 213.73 L238.58 213.15 Z" stroke="rgb(0, 0, 0)" stroke-width="0" fill-rule="evenodd" stroke-linejoin="miter" fill="rgb(0, 0, 0)" shape-rendering="geometricPrecision" /></g><g id="Solid"><path d="M238.58 213.15 L238.58 213.15 L238.58 213.73 L238.58 214.31 L216.98 201.84 L217.23 201.4 L217.48 200.97 Z" stroke="rgb(0, 0, 0)" stroke-width="0" fill-rule="evenodd" stroke-linejoin="miter" fill="rgb(0, 0, 0)" shape-rendering="geometricPrecision" /></g><g id="Solid"><path d="M207.82 200.91 L207.82 200.91 L208.07 201.35 L208.32 201.78 L186.87 214.16 L186.62 213.73 L186.37 213.3 Z" stroke="rgb(0, 0, 0)" stroke-width="0" fill-rule="evenodd" stroke-linejoin="miter" fill="rgb(0, 0, 0)" shape-rendering="geometricPrecision" /></g><g id="Solid"><line x1="314.73" y1="198.73" x2="314.73" y2="174.8" stroke="rgb(0, 0, 0)" stroke-width="1" shape-rendering="auto" /><path d="M317.83 198.9 L317.83 198.9 L318.83 199.48 L318.83 174.8 L317.83 174.8 Z" stroke="rgb(0, 0, 0)" stroke-width="0" fill-rule="evenodd" stroke-linejoin="miter" fill="rgb(0, 0, 0)" shape-rendering="geometricPrecision" /><path d="M314.23 199.48 L314.23 199.48 L315.23 198.9 L315.23 174.8 L314.23 174.8 Z" stroke="rgb(0, 0, 0)" stroke-width="0" fill-rule="evenodd" stroke-linejoin="miter" fill="rgb(0, 0, 0)" shape-rendering="geometricPrecision" /></g><g id="Solid"><path d="M316.53 199.31 L316.53 199.31 L316.53 198.73 L316.53 198.15 L337.92 210.5 L337.67 210.93 L337.42 211.37 Z" stroke="rgb(0, 0, 0)" stroke-width="0" fill-rule="evenodd" stroke-linejoin="miter" fill="rgb(0, 0, 0)" shape-rendering="geometricPrecision" /></g></g></g></svg>