<?xml version="1.0"?><svg xmlns="http://www.w3.org/2000/svg" xmlns:xlink="http://www.w3.org/1999/xlink" viewBox="186.25 159.43 167.5 95.14" preserveAspectRatio="xMidYMid" width="100%" height="100%"><clipPath id="519"><rect x="0.5" y="0.5" width="539" height="719" /></clipPath><g id="drawing"><rect x="186.25" y="159.43" width="100%" height="100%" fill="rgb(255, 255, 255)" /><g id="page" clip-path="url(#519)"><g><text xml:space="preserve" text-anchor="start" text-rendering="geometricPrecision"><tspan x="287.07" y="242.89" font-family="Arial" font-size="10" fill="rgb(0, 0, 0)">NH</tspan><tspan font-family="Arial" dy="2.26" font-size="7.5" fill="rgb(0, 0, 0)">2</tspan></text></g><g><text xml:space="preserve" text-anchor="start" text-rendering="geometricPrecision"><tspan x="312.75" y="167.89" font-family="Arial" font-size="10" fill="rgb(0, 0, 0)">O</tspan></text></g><g><text xml:space="preserve" text-anchor="start" text-rendering="geometricPrecision"><tspan x="338.73" y="212.89" font-family="Arial" font-size="10" fill="rgb(0, 0, 0)">OH</tspan></text></g><g id="WedgeBegin"><path d="M290.15 209.27 L290.15 209.27 L290.67 208.99 L291.19 209.27 L293.67 233.8 L290.67 233.8 L287.67 233.8 Z" stroke="rgb(0, 0, 0)" stroke-width="0" fill-rule="evenodd" stroke-linejoin="miter" fill="rgb(0, 0, 0)" shape-rendering="geometricPrecision" /></g><g id="Solid"><path d="M316.65 193.41 L316.65 193.41 L316.65 193.99 L316.65 194.57 L291.19 209.27 L290.67 208.99 L290.67 208.41 Z" stroke="rgb(0, 0, 0)" stroke-width="0" fill-rule="evenodd" stroke-linejoin="miter" fill="rgb(0, 0, 0)" shape-rendering="geometricPrecision" /></g><g id="Solid"><path d="M290.67 208.41 L290.67 208.41 L290.67 208.99 L290.15 209.27 L264.69 194.57 L264.69 193.99 L264.69 193.41 Z" stroke="rgb(0, 0, 0)" stroke-width="0" fill-rule="evenodd" stroke-linejoin="miter" fill="rgb(0, 0, 0)" shape-rendering="geometricPrecision" /></g><g id="Solid"><path d="M264.69 193.41 L264.69 193.41 L264.69 193.99 L264.69 194.57 L239.21 209.28 L238.71 208.99 L238.71 208.41 Z" stroke="rgb(0, 0, 0)" stroke-width="0" fill-rule="evenodd" stroke-linejoin="miter" fill="rgb(0, 0, 0)" shape-rendering="geometricPrecision" /></g><g id="Solid"><path d="M238.21 209.28 L238.21 209.28 L238.71 208.99 L239.21 209.28 L239.21 239.28 L238.71 238.99 L238.21 238.7 Z" stroke="rgb(0, 0, 0)" stroke-width="0" fill-rule="evenodd" stroke-linejoin="miter" fill="rgb(0, 0, 0)" shape-rendering="geometricPrecision" /></g><g id="Solid"><path d="M238.21 238.7 L238.21 238.7 L238.71 238.99 L239.21 239.28 L212.73 254.57 L212.73 253.99 L212.73 253.41 Z" stroke="rgb(0, 0, 0)" stroke-width="0" fill-rule="evenodd" stroke-linejoin="miter" fill="rgb(0, 0, 0)" shape-rendering="geometricPrecision" /><line x1="235.11" y1="236.91" x2="212.73" y2="249.83" stroke="rgb(0, 0, 0)" stroke-width="1" shape-rendering="auto" /></g><g id="Solid"><path d="M212.73 253.41 L212.73 253.41 L212.73 253.99 L212.73 254.57 L186.25 239.28 L186.75 238.99 L187.25 238.7 Z" stroke="rgb(0, 0, 0)" stroke-width="0" fill-rule="evenodd" stroke-linejoin="miter" fill="rgb(0, 0, 0)" shape-rendering="geometricPrecision" /></g><g id="Solid"><path d="M187.25 238.7 L187.25 238.7 L186.75 238.99 L186.25 239.28 L186.25 208.7 L186.75 208.99 L187.25 209.28 Z" stroke="rgb(0, 0, 0)" stroke-width="0" fill-rule="evenodd" stroke-linejoin="miter" fill="rgb(0, 0, 0)" shape-rendering="geometricPrecision" /><line x1="190.35" y1="236.91" x2="190.35" y2="211.07" stroke="rgb(0, 0, 0)" stroke-width="1" shape-rendering="auto" /></g><g id="Solid"><path d="M187.25 209.28 L187.25 209.28 L186.75 208.99 L186.25 208.7 L212.73 193.41 L212.73 193.99 L212.73 194.57 Z" stroke="rgb(0, 0, 0)" stroke-width="0" fill-rule="evenodd" stroke-linejoin="miter" fill="rgb(0, 0, 0)" shape-rendering="geometricPrecision" /></g><g id="Solid"><path d="M238.71 208.41 L238.71 208.41 L238.71 208.99 L238.21 209.28 L212.73 194.57 L212.73 193.99 L212.73 193.41 Z" stroke="rgb(0, 0, 0)" stroke-width="0" fill-rule="evenodd" stroke-linejoin="miter" fill="rgb(0, 0, 0)" shape-rendering="geometricPrecision" /><line x1="235.11" y1="211.07" x2="212.73" y2="198.15" stroke="rgb(0, 0, 0)" stroke-width="1" shape-rendering="auto" /></g><g id="Solid"><line x1="314.85" y1="193.99" x2="314.85" y2="170.1" stroke="rgb(0, 0, 0)" stroke-width="1" shape-rendering="auto" /><path d="M317.95 194.16 L317.95 194.16 L318.95 194.74 L318.95 170.1 L317.95 170.1 Z" stroke="rgb(0, 0, 0)" stroke-width="0" fill-rule="evenodd" stroke-linejoin="miter" fill="rgb(0, 0, 0)" shape-rendering="geometricPrecision" /><path d="M314.35 194.74 L314.35 194.74 L315.35 194.16 L315.35 170.1 L314.35 170.1 Z" stroke="rgb(0, 0, 0)" stroke-width="0" fill-rule="evenodd" stroke-linejoin="miter" fill="rgb(0, 0, 0)" shape-rendering="geometricPrecision" /></g><g id="Solid"><path d="M316.65 194.57 L316.65 194.57 L316.65 193.99 L316.65 193.41 L338.12 205.81 L337.87 206.24 L337.62 206.67 Z" stroke="rgb(0, 0, 0)" stroke-width="0" fill-rule="evenodd" stroke-linejoin="miter" fill="rgb(0, 0, 0)" shape-rendering="geometricPrecision" /></g></g></g></svg>