<?xml version="1.0"?><svg xmlns="http://www.w3.org/2000/svg" xmlns:xlink="http://www.w3.org/1999/xlink" viewBox="214.41 163.9 111.18 86.2" preserveAspectRatio="xMidYMid" width="100%" height="100%"><clipPath id="546"><rect x="0.5" y="0.5" width="539" height="719" /></clipPath><g id="drawing"><rect x="214.41" y="163.9" width="100%" height="100%" fill="rgb(255, 255, 255)" /><g id="page" clip-path="url(#546)"><g><text xml:space="preserve" text-anchor="start" text-rendering="geometricPrecision"><tspan x="255.77" y="247.2" font-family="Arial" font-size="10" fill="rgb(0, 0, 0)">NH</tspan></text></g><g><text xml:space="preserve" text-anchor="start" text-rendering="geometricPrecision"><tspan x="284.59" y="172.36" font-family="Arial" font-size="10" fill="rgb(0, 0, 0)">O</tspan></text></g><g><text xml:space="preserve" text-anchor="start" text-rendering="geometricPrecision"><tspan x="310.57" y="217.36" font-family="Arial" font-size="10" fill="rgb(0, 0, 0)">OH</tspan></text></g><g id="Solid"><path d="M260.41 238.16 L260.41 238.16 L259.92 238.11 L259.42 238.06 L261.97 213.77 L262.51 213.46 L262.98 213.79 Z" stroke="rgb(0, 0, 0)" stroke-width="0" fill-rule="evenodd" stroke-linejoin="miter" fill="rgb(0, 0, 0)" shape-rendering="geometricPrecision" /></g><g id="WedgeBegin"><path d="M262.98 213.79 L262.98 213.79 L262.51 213.46 L262.46 212.89 L286.08 196.49 L288.49 198.46 L291.09 200.54 Z" stroke="rgb(0, 0, 0)" stroke-width="0" fill-rule="evenodd" stroke-linejoin="miter" fill="rgb(0, 0, 0)" shape-rendering="geometricPrecision" /></g><g id="Solid"><path d="M262.46 212.89 L262.46 212.89 L262.51 213.46 L261.97 213.77 L235.23 201.86 L235.1 201.26 L234.97 200.66 Z" stroke="rgb(0, 0, 0)" stroke-width="0" fill-rule="evenodd" stroke-linejoin="miter" fill="rgb(0, 0, 0)" shape-rendering="geometricPrecision" /></g><g id="Solid"><path d="M234.97 200.66 L234.97 200.66 L235.1 201.26 L235.23 201.86 L215.64 223.61 L215.03 223.55 L214.42 223.49 Z" stroke="rgb(0, 0, 0)" stroke-width="0" fill-rule="evenodd" stroke-linejoin="miter" fill="rgb(0, 0, 0)" shape-rendering="geometricPrecision" /></g><g id="Solid"><path d="M214.42 223.49 L214.42 223.49 L215.03 223.55 L215.64 223.61 L230.28 248.97 L230.03 249.53 L229.78 250.09 Z" stroke="rgb(0, 0, 0)" stroke-width="0" fill-rule="evenodd" stroke-linejoin="miter" fill="rgb(0, 0, 0)" shape-rendering="geometricPrecision" /></g><g id="Solid"><path d="M254.54 243.81 L254.54 243.81 L254.64 244.3 L254.75 244.79 L229.78 250.09 L230.03 249.53 L230.28 248.97 Z" stroke="rgb(0, 0, 0)" stroke-width="0" fill-rule="evenodd" stroke-linejoin="miter" fill="rgb(0, 0, 0)" shape-rendering="geometricPrecision" /></g><g id="Solid"><line x1="286.69" y1="198.46" x2="286.69" y2="174.5" stroke="rgb(0, 0, 0)" stroke-width="1" shape-rendering="auto" /><path d="M289.79 198.63 L289.79 198.63 L290.79 199.21 L290.79 174.5 L289.79 174.5 Z" stroke="rgb(0, 0, 0)" stroke-width="0" fill-rule="evenodd" stroke-linejoin="miter" fill="rgb(0, 0, 0)" shape-rendering="geometricPrecision" /><path d="M286.19 198.99 L286.19 198.99 L287.19 198.52 L287.19 174.5 L286.19 174.5 Z" stroke="rgb(0, 0, 0)" stroke-width="0" fill-rule="evenodd" stroke-linejoin="miter" fill="rgb(0, 0, 0)" shape-rendering="geometricPrecision" /></g><g id="Solid"><path d="M291.09 200.54 L291.09 200.54 L288.49 198.46 L286.08 196.49 L309.92 210.25 L309.67 210.69 L309.42 211.12 Z" stroke="rgb(0, 0, 0)" stroke-width="0" fill-rule="evenodd" stroke-linejoin="miter" fill="rgb(0, 0, 0)" shape-rendering="geometricPrecision" /></g></g></g></svg>