<?xml version="1.0"?><svg xmlns="http://www.w3.org/2000/svg" xmlns:xlink="http://www.w3.org/1999/xlink" viewBox="206.92 164.17 126.16 85.83" preserveAspectRatio="xMidYMid" width="100%" height="100%"><clipPath id="568"><rect x="0.5" y="0.5" width="539" height="719" /></clipPath><g id="drawing"><rect x="206.92" y="164.17" width="100%" height="100%" fill="rgb(255, 255, 255)" /><g id="page" clip-path="url(#568)"><g><text xml:space="preserve" text-anchor="start" text-rendering="geometricPrecision"><tspan x="266.4" y="247.63" font-family="Arial" font-size="10" fill="rgb(0, 0, 0)">NH</tspan><tspan font-family="Arial" dy="2.26" font-size="7.5" fill="rgb(0, 0, 0)">2</tspan></text></g><g><text xml:space="preserve" text-anchor="end" text-rendering="geometricPrecision"><tspan x="221.94" y="217.63" font-family="Arial" font-size="10" fill="rgb(0, 0, 0)">HO</tspan></text></g><g><text xml:space="preserve" text-anchor="start" text-rendering="geometricPrecision"><tspan x="292.08" y="172.63" font-family="Arial" font-size="10" fill="rgb(0, 0, 0)">O</tspan></text></g><g><text xml:space="preserve" text-anchor="start" text-rendering="geometricPrecision"><tspan x="318.06" y="217.63" font-family="Arial" font-size="10" fill="rgb(0, 0, 0)">OH</tspan></text></g><g id="WedgeBegin"><path d="M269.48 214.01 L269.48 214.01 L270 213.73 L270.52 214.01 L273 238.5 L270 238.5 L267 238.5 Z" stroke="rgb(0, 0, 0)" stroke-width="0" fill-rule="evenodd" stroke-linejoin="miter" fill="rgb(0, 0, 0)" shape-rendering="geometricPrecision" /></g><g id="Solid"><path d="M295.98 198.15 L295.98 198.15 L295.98 198.73 L295.98 199.31 L270.52 214.01 L270 213.73 L270 213.15 Z" stroke="rgb(0, 0, 0)" stroke-width="0" fill-rule="evenodd" stroke-linejoin="miter" fill="rgb(0, 0, 0)" shape-rendering="geometricPrecision" /></g><g id="Solid"><path d="M270 213.15 L270 213.15 L270 213.73 L269.48 214.01 L244.02 199.31 L244.02 198.73 L244.02 198.15 Z" stroke="rgb(0, 0, 0)" stroke-width="0" fill-rule="evenodd" stroke-linejoin="miter" fill="rgb(0, 0, 0)" shape-rendering="geometricPrecision" /></g><g id="Solid"><path d="M244.02 198.15 L244.02 198.15 L244.02 198.73 L244.02 199.31 L223.18 211.34 L222.93 210.91 L222.68 210.47 Z" stroke="rgb(0, 0, 0)" stroke-width="0" fill-rule="evenodd" stroke-linejoin="miter" fill="rgb(0, 0, 0)" shape-rendering="geometricPrecision" /></g><g id="Solid"><line x1="294.18" y1="198.73" x2="294.18" y2="174.8" stroke="rgb(0, 0, 0)" stroke-width="1" shape-rendering="auto" /><path d="M297.28 198.9 L297.28 198.9 L298.28 199.48 L298.28 174.8 L297.28 174.8 Z" stroke="rgb(0, 0, 0)" stroke-width="0" fill-rule="evenodd" stroke-linejoin="miter" fill="rgb(0, 0, 0)" shape-rendering="geometricPrecision" /><path d="M293.68 199.48 L293.68 199.48 L294.68 198.9 L294.68 174.8 L293.68 174.8 Z" stroke="rgb(0, 0, 0)" stroke-width="0" fill-rule="evenodd" stroke-linejoin="miter" fill="rgb(0, 0, 0)" shape-rendering="geometricPrecision" /></g><g id="Solid"><path d="M295.98 199.31 L295.98 199.31 L295.98 198.73 L295.98 198.15 L317.42 210.53 L317.17 210.96 L316.92 211.4 Z" stroke="rgb(0, 0, 0)" stroke-width="0" fill-rule="evenodd" stroke-linejoin="miter" fill="rgb(0, 0, 0)" shape-rendering="geometricPrecision" /></g></g></g></svg>