<?xml version="1.0"?><svg xmlns="http://www.w3.org/2000/svg" xmlns:xlink="http://www.w3.org/1999/xlink" viewBox="212.35 164.17 115.3 85.83" preserveAspectRatio="xMidYMid" width="100%" height="100%"><clipPath id="594"><rect x="0.5" y="0.5" width="539" height="719" /></clipPath><g id="drawing"><rect x="212.35" y="164.17" width="100%" height="100%" fill="rgb(255, 255, 255)" /><g id="page" clip-path="url(#594)"><g><text xml:space="preserve" text-anchor="start" text-rendering="geometricPrecision"><tspan x="260.96" y="247.63" font-family="Arial" font-size="10" fill="rgb(0, 0, 0)">NH</tspan><tspan font-family="Arial" dy="2.26" font-size="7.5" fill="rgb(0, 0, 0)">2</tspan></text></g><g><text xml:space="preserve" text-anchor="start" text-rendering="geometricPrecision"><tspan x="234.68" y="172.63" font-family="Arial" font-size="10" fill="rgb(0, 0, 0)">OH</tspan></text></g><g><text xml:space="preserve" text-anchor="start" text-rendering="geometricPrecision"><tspan x="286.64" y="172.63" font-family="Arial" font-size="10" fill="rgb(0, 0, 0)">O</tspan></text></g><g><text xml:space="preserve" text-anchor="start" text-rendering="geometricPrecision"><tspan x="312.63" y="217.63" font-family="Arial" font-size="10" fill="rgb(0, 0, 0)">OH</tspan></text></g><g id="WedgeBegin"><path d="M264.04 214.01 L264.04 214.01 L264.56 213.73 L265.08 214.01 L267.56 238.5 L264.56 238.5 L261.56 238.5 Z" stroke="rgb(0, 0, 0)" stroke-width="0" fill-rule="evenodd" stroke-linejoin="miter" fill="rgb(0, 0, 0)" shape-rendering="geometricPrecision" /></g><g id="Solid"><path d="M290.54 198.15 L290.54 198.15 L290.54 198.73 L290.54 199.31 L265.08 214.01 L264.56 213.73 L264.56 213.15 Z" stroke="rgb(0, 0, 0)" stroke-width="0" fill-rule="evenodd" stroke-linejoin="miter" fill="rgb(0, 0, 0)" shape-rendering="geometricPrecision" /></g><g id="Solid"><path d="M264.56 213.15 L264.56 213.15 L264.56 213.73 L264.04 214.01 L238.58 199.31 L238.58 198.73 L239.1 198.45 Z" stroke="rgb(0, 0, 0)" stroke-width="0" fill-rule="evenodd" stroke-linejoin="miter" fill="rgb(0, 0, 0)" shape-rendering="geometricPrecision" /></g><g id="Solid"><path d="M238.06 198.45 L238.06 198.45 L238.58 198.73 L238.58 199.31 L212.85 214.16 L212.6 213.73 L212.35 213.3 Z" stroke="rgb(0, 0, 0)" stroke-width="0" fill-rule="evenodd" stroke-linejoin="miter" fill="rgb(0, 0, 0)" shape-rendering="geometricPrecision" /></g><g id="WedgeBegin"><path d="M239.1 198.45 L239.1 198.45 L238.58 198.73 L238.06 198.45 L235.58 174.8 L238.58 174.8 L241.58 174.8 Z" stroke="rgb(0, 0, 0)" stroke-width="0" fill-rule="evenodd" stroke-linejoin="miter" fill="rgb(0, 0, 0)" shape-rendering="geometricPrecision" /></g><g id="Solid"><line x1="288.74" y1="198.73" x2="288.74" y2="174.8" stroke="rgb(0, 0, 0)" stroke-width="1" shape-rendering="auto" /><path d="M291.84 198.9 L291.84 198.9 L292.84 199.48 L292.84 174.8 L291.84 174.8 Z" stroke="rgb(0, 0, 0)" stroke-width="0" fill-rule="evenodd" stroke-linejoin="miter" fill="rgb(0, 0, 0)" shape-rendering="geometricPrecision" /><path d="M288.24 199.48 L288.24 199.48 L289.24 198.9 L289.24 174.8 L288.24 174.8 Z" stroke="rgb(0, 0, 0)" stroke-width="0" fill-rule="evenodd" stroke-linejoin="miter" fill="rgb(0, 0, 0)" shape-rendering="geometricPrecision" /></g><g id="Solid"><path d="M290.54 199.31 L290.54 199.31 L290.54 198.73 L290.54 198.15 L312.02 210.55 L311.77 210.98 L311.52 211.41 Z" stroke="rgb(0, 0, 0)" stroke-width="0" fill-rule="evenodd" stroke-linejoin="miter" fill="rgb(0, 0, 0)" shape-rendering="geometricPrecision" /></g></g></g></svg>