<?xml version="1.0"?><svg xmlns="http://www.w3.org/2000/svg" xmlns:xlink="http://www.w3.org/1999/xlink" viewBox="185.33 131.54 169.34 150.94" preserveAspectRatio="xMidYMid" width="100%" height="100%"><clipPath id="642"><rect x="0.5" y="0.5" width="539" height="719" /></clipPath><g id="drawing"><rect x="185.33" y="131.54" width="100%" height="100%" fill="rgb(255, 255, 255)" /><g id="page" clip-path="url(#642)"><g><text xml:space="preserve" text-anchor="start" text-rendering="geometricPrecision"><tspan x="321.41" y="209.24" font-family="Arial" font-size="10" fill="rgb(0, 0, 0)">NH</tspan><tspan font-family="Arial" dy="2.26" font-size="7.5" fill="rgb(0, 0, 0)">2</tspan></text></g><g><text xml:space="preserve" text-anchor="start" text-rendering="geometricPrecision"><tspan x="262.72" y="139.88" font-family="Arial" font-size="10" fill="rgb(0, 0, 0)">H</tspan><tspan x="262.72" y="150.07" font-family="Arial" font-size="10" fill="rgb(0, 0, 0)">N</tspan></text></g><g><text xml:space="preserve" text-anchor="start" text-rendering="geometricPrecision"><tspan x="290.23" y="282.36" font-family="Arial" font-size="10" fill="rgb(0, 0, 0)">O</tspan></text></g><g><text xml:space="preserve" text-anchor="start" text-rendering="geometricPrecision"><tspan x="339.65" y="266.3" font-family="Arial" font-size="10" fill="rgb(0, 0, 0)">OH</tspan></text></g><g id="Wedged Hash Begin Bond"><path d="M305.31 227.96 L305.31 227.96 L304.57 227.3 L305.16 226.48 L306.06 227.29 Z" stroke="rgb(0, 0, 0)" stroke-width="0" fill-rule="evenodd" stroke-linejoin="miter" fill="rgb(0, 0, 0)" shape-rendering="geometricPrecision" /><path d="M307.44 226.05 L307.44 226.05 L306.25 224.98 L306.84 224.16 L308.19 225.37 Z" stroke="rgb(0, 0, 0)" stroke-width="0" fill-rule="evenodd" stroke-linejoin="miter" fill="rgb(0, 0, 0)" shape-rendering="geometricPrecision" /><path d="M309.57 224.13 L309.57 224.13 L307.94 222.66 L308.53 221.85 L310.32 223.46 Z" stroke="rgb(0, 0, 0)" stroke-width="0" fill-rule="evenodd" stroke-linejoin="miter" fill="rgb(0, 0, 0)" shape-rendering="geometricPrecision" /><path d="M311.7 222.21 L311.7 222.21 L309.62 220.34 L310.21 219.53 L312.45 221.54 Z" stroke="rgb(0, 0, 0)" stroke-width="0" fill-rule="evenodd" stroke-linejoin="miter" fill="rgb(0, 0, 0)" shape-rendering="geometricPrecision" /><path d="M313.83 220.3 L313.83 220.3 L311.3 218.02 L311.9 217.21 L314.57 219.62 Z" stroke="rgb(0, 0, 0)" stroke-width="0" fill-rule="evenodd" stroke-linejoin="miter" fill="rgb(0, 0, 0)" shape-rendering="geometricPrecision" /><path d="M315.96 218.38 L315.96 218.38 L312.99 215.71 L313.58 214.89 L316.7 217.71 Z" stroke="rgb(0, 0, 0)" stroke-width="0" fill-rule="evenodd" stroke-linejoin="miter" fill="rgb(0, 0, 0)" shape-rendering="geometricPrecision" /><path d="M318.09 216.46 L318.09 216.46 L314.67 213.39 L315.26 212.58 L318.83 215.79 Z" stroke="rgb(0, 0, 0)" stroke-width="0" fill-rule="evenodd" stroke-linejoin="miter" fill="rgb(0, 0, 0)" shape-rendering="geometricPrecision" /><path d="M320.21 214.54 L320.21 214.54 L316.36 211.07 L316.95 210.26 L320.96 213.87 Z" stroke="rgb(0, 0, 0)" stroke-width="0" fill-rule="evenodd" stroke-linejoin="miter" fill="rgb(0, 0, 0)" shape-rendering="geometricPrecision" /><path d="M322.34 212.63 L322.34 212.63 L318.04 208.75 L318.63 207.94 L323.09 211.95 Z" stroke="rgb(0, 0, 0)" stroke-width="0" fill-rule="evenodd" stroke-linejoin="miter" fill="rgb(0, 0, 0)" shape-rendering="geometricPrecision" /></g><g id="Solid"><path d="M314.6 255.74 L314.6 255.74 L314.21 256.17 L313.82 256.6 L304.55 228.06 L304.94 227.63 L305.33 227.2 Z" stroke="rgb(0, 0, 0)" stroke-width="0" fill-rule="evenodd" stroke-linejoin="miter" fill="rgb(0, 0, 0)" shape-rendering="geometricPrecision" /></g><g id="Solid"><path d="M305.33 227.2 L305.33 227.2 L304.94 227.63 L304.55 228.06 L275.2 221.83 L275.59 221.4 L275.98 220.97 Z" stroke="rgb(0, 0, 0)" stroke-width="0" fill-rule="evenodd" stroke-linejoin="miter" fill="rgb(0, 0, 0)" shape-rendering="geometricPrecision" /></g><g id="Solid"><path d="M275.98 220.97 L275.98 220.97 L275.59 221.4 L275.2 221.83 L265.92 193.26 L266.32 192.86 L266.87 192.95 Z" stroke="rgb(0, 0, 0)" stroke-width="0" fill-rule="evenodd" stroke-linejoin="miter" fill="rgb(0, 0, 0)" shape-rendering="geometricPrecision" /></g><g id="Solid"><path d="M266.87 192.95 L266.87 192.95 L266.32 192.86 L266.13 192.27 L283.33 168.59 L283.95 168.59 L284.57 168.59 Z" stroke="rgb(0, 0, 0)" stroke-width="0" fill-rule="evenodd" stroke-linejoin="miter" fill="rgb(0, 0, 0)" shape-rendering="geometricPrecision" /><line x1="264.94" y1="188.63" x2="279.5" y2="168.59" stroke="rgb(0, 0, 0)" stroke-width="1" shape-rendering="auto" /></g><g id="Solid"><path d="M284.57 168.59 L284.57 168.59 L283.95 168.59 L283.33 168.59 L269.97 150.2 L270.38 149.9 L270.78 149.61 Z" stroke="rgb(0, 0, 0)" stroke-width="0" fill-rule="evenodd" stroke-linejoin="miter" fill="rgb(0, 0, 0)" shape-rendering="geometricPrecision" /></g><g id="Solid"><path d="M261.44 145.38 L261.44 145.38 L261.6 145.85 L261.75 146.33 L238.29 153.95 L237.79 153.59 L237.85 153.05 Z" stroke="rgb(0, 0, 0)" stroke-width="0" fill-rule="evenodd" stroke-linejoin="miter" fill="rgb(0, 0, 0)" shape-rendering="geometricPrecision" /></g><g id="Solid"><path d="M237.85 153.05 L237.85 153.05 L237.79 153.59 L237.29 153.88 L211.81 139.17 L211.81 138.59 L211.81 138.01 Z" stroke="rgb(0, 0, 0)" stroke-width="0" fill-rule="evenodd" stroke-linejoin="miter" fill="rgb(0, 0, 0)" shape-rendering="geometricPrecision" /></g><g id="Solid"><path d="M211.81 138.01 L211.81 138.01 L211.81 138.59 L211.81 139.17 L186.33 153.88 L185.83 153.59 L185.33 153.3 Z" stroke="rgb(0, 0, 0)" stroke-width="0" fill-rule="evenodd" stroke-linejoin="miter" fill="rgb(0, 0, 0)" shape-rendering="geometricPrecision" /><line x1="211.81" y1="142.75" x2="189.43" y2="155.67" stroke="rgb(0, 0, 0)" stroke-width="1" shape-rendering="auto" /></g><g id="Solid"><path d="M185.33 153.3 L185.33 153.3 L185.83 153.59 L186.33 153.88 L186.33 183.3 L185.83 183.59 L185.33 183.88 Z" stroke="rgb(0, 0, 0)" stroke-width="0" fill-rule="evenodd" stroke-linejoin="miter" fill="rgb(0, 0, 0)" shape-rendering="geometricPrecision" /></g><g id="Solid"><path d="M185.33 183.88 L185.33 183.88 L185.83 183.59 L186.33 183.3 L211.81 198.01 L211.81 198.59 L211.81 199.17 Z" stroke="rgb(0, 0, 0)" stroke-width="0" fill-rule="evenodd" stroke-linejoin="miter" fill="rgb(0, 0, 0)" shape-rendering="geometricPrecision" /><line x1="189.43" y1="181.51" x2="211.81" y2="194.43" stroke="rgb(0, 0, 0)" stroke-width="1" shape-rendering="auto" /></g><g id="Solid"><path d="M211.81 199.17 L211.81 199.17 L211.81 198.59 L211.81 198.01 L237.29 183.3 L237.79 183.59 L237.85 184.13 Z" stroke="rgb(0, 0, 0)" stroke-width="0" fill-rule="evenodd" stroke-linejoin="miter" fill="rgb(0, 0, 0)" shape-rendering="geometricPrecision" /></g><g id="Solid"><path d="M266.13 192.27 L266.13 192.27 L266.32 192.86 L265.92 193.26 L237.85 184.13 L237.79 183.59 L238.29 183.23 Z" stroke="rgb(0, 0, 0)" stroke-width="0" fill-rule="evenodd" stroke-linejoin="miter" fill="rgb(0, 0, 0)" shape-rendering="geometricPrecision" /></g><g id="Solid"><path d="M237.29 153.88 L237.29 153.88 L237.79 153.59 L238.29 153.95 L238.29 183.23 L237.79 183.59 L237.29 183.3 Z" stroke="rgb(0, 0, 0)" stroke-width="0" fill-rule="evenodd" stroke-linejoin="miter" fill="rgb(0, 0, 0)" shape-rendering="geometricPrecision" /><line x1="234.19" y1="155.67" x2="234.19" y2="181.51" stroke="rgb(0, 0, 0)" stroke-width="1" shape-rendering="auto" /></g><g id="Solid"><line x1="315.55" y1="257.37" x2="299.83" y2="274.82" stroke="rgb(0, 0, 0)" stroke-width="1" shape-rendering="auto" /><path d="M313.36 255.17 L313.36 255.17 L313 254.07 L296.79 272.07 L297.53 272.74 Z" stroke="rgb(0, 0, 0)" stroke-width="0" fill-rule="evenodd" stroke-linejoin="miter" fill="rgb(0, 0, 0)" shape-rendering="geometricPrecision" /><path d="M316.42 257.15 L316.42 257.15 L315.29 256.91 L299.46 274.48 L300.2 275.15 Z" stroke="rgb(0, 0, 0)" stroke-width="0" fill-rule="evenodd" stroke-linejoin="miter" fill="rgb(0, 0, 0)" shape-rendering="geometricPrecision" /></g><g id="Solid"><path d="M313.82 256.6 L313.82 256.6 L314.21 256.17 L314.6 255.74 L338.35 260.78 L338.24 261.27 L338.14 261.76 Z" stroke="rgb(0, 0, 0)" stroke-width="0" fill-rule="evenodd" stroke-linejoin="miter" fill="rgb(0, 0, 0)" shape-rendering="geometricPrecision" /></g></g></g></svg>