<?xml version="1.0"?><svg xmlns="http://www.w3.org/2000/svg" xmlns:xlink="http://www.w3.org/1999/xlink" viewBox="167.95 157.72 204.1 98.58" preserveAspectRatio="xMidYMid" width="100%" height="100%"><clipPath id="685"><rect x="0.5" y="0.5" width="539" height="719" /></clipPath><g id="drawing"><rect x="167.95" y="157.72" width="100%" height="100%" fill="rgb(255, 255, 255)" /><g id="page" clip-path="url(#685)"><g><text xml:space="preserve" text-anchor="start" text-rendering="geometricPrecision"><tspan x="305.37" y="241.18" font-family="Arial" font-size="10" fill="rgb(0, 0, 0)">NH</tspan><tspan font-family="Arial" dy="2.26" font-size="7.5" fill="rgb(0, 0, 0)">2</tspan></text></g><g><text xml:space="preserve" text-anchor="end" text-rendering="geometricPrecision"><tspan x="182.97" y="256.18" font-family="Arial" font-size="10" fill="rgb(0, 0, 0)">HO</tspan></text></g><g><text xml:space="preserve" text-anchor="start" text-rendering="geometricPrecision"><tspan x="331.05" y="166.18" font-family="Arial" font-size="10" fill="rgb(0, 0, 0)">O</tspan></text></g><g><text xml:space="preserve" text-anchor="start" text-rendering="geometricPrecision"><tspan x="357.03" y="211.18" font-family="Arial" font-size="10" fill="rgb(0, 0, 0)">OH</tspan></text></g><g id="WedgeBegin"><path d="M308.45 207.56 L308.45 207.56 L308.97 207.28 L309.49 207.56 L311.97 232.1 L308.97 232.1 L305.97 232.1 Z" stroke="rgb(0, 0, 0)" stroke-width="0" fill-rule="evenodd" stroke-linejoin="miter" fill="rgb(0, 0, 0)" shape-rendering="geometricPrecision" /></g><g id="Solid"><path d="M334.95 191.7 L334.95 191.7 L334.95 192.28 L334.95 192.86 L309.49 207.56 L308.97 207.28 L308.97 206.7 Z" stroke="rgb(0, 0, 0)" stroke-width="0" fill-rule="evenodd" stroke-linejoin="miter" fill="rgb(0, 0, 0)" shape-rendering="geometricPrecision" /></g><g id="Solid"><path d="M308.97 206.7 L308.97 206.7 L308.97 207.28 L308.45 207.56 L282.99 192.86 L282.99 192.28 L282.99 191.7 Z" stroke="rgb(0, 0, 0)" stroke-width="0" fill-rule="evenodd" stroke-linejoin="miter" fill="rgb(0, 0, 0)" shape-rendering="geometricPrecision" /></g><g id="Solid"><path d="M282.99 191.7 L282.99 191.7 L282.99 192.28 L282.99 192.86 L257.51 207.57 L257.01 207.28 L257.01 206.7 Z" stroke="rgb(0, 0, 0)" stroke-width="0" fill-rule="evenodd" stroke-linejoin="miter" fill="rgb(0, 0, 0)" shape-rendering="geometricPrecision" /></g><g id="Solid"><path d="M256.51 207.57 L256.51 207.57 L257.01 207.28 L257.51 207.57 L257.51 237.57 L257.01 237.28 L256.51 236.99 Z" stroke="rgb(0, 0, 0)" stroke-width="0" fill-rule="evenodd" stroke-linejoin="miter" fill="rgb(0, 0, 0)" shape-rendering="geometricPrecision" /></g><g id="Solid"><path d="M256.51 236.99 L256.51 236.99 L257.01 237.28 L257.51 237.57 L231.03 252.86 L231.03 252.28 L231.03 251.7 Z" stroke="rgb(0, 0, 0)" stroke-width="0" fill-rule="evenodd" stroke-linejoin="miter" fill="rgb(0, 0, 0)" shape-rendering="geometricPrecision" /><line x1="253.41" y1="235.2" x2="231.03" y2="248.12" stroke="rgb(0, 0, 0)" stroke-width="1" shape-rendering="auto" /></g><g id="Solid"><path d="M231.03 251.7 L231.03 251.7 L231.03 252.28 L231.03 252.86 L205.05 237.86 L205.05 237.28 L205.55 236.99 Z" stroke="rgb(0, 0, 0)" stroke-width="0" fill-rule="evenodd" stroke-linejoin="miter" fill="rgb(0, 0, 0)" shape-rendering="geometricPrecision" /></g><g id="Solid"><path d="M204.55 236.99 L204.55 236.99 L205.05 237.28 L205.05 237.86 L184.28 249.85 L184.03 249.42 L183.78 248.98 Z" stroke="rgb(0, 0, 0)" stroke-width="0" fill-rule="evenodd" stroke-linejoin="miter" fill="rgb(0, 0, 0)" shape-rendering="geometricPrecision" /></g><g id="Solid"><path d="M205.55 236.99 L205.55 236.99 L205.05 237.28 L204.55 236.99 L204.55 206.99 L205.05 207.28 L205.55 207.57 Z" stroke="rgb(0, 0, 0)" stroke-width="0" fill-rule="evenodd" stroke-linejoin="miter" fill="rgb(0, 0, 0)" shape-rendering="geometricPrecision" /><line x1="208.65" y1="235.2" x2="208.65" y2="209.36" stroke="rgb(0, 0, 0)" stroke-width="1" shape-rendering="auto" /></g><g id="Solid"><path d="M205.55 207.57 L205.55 207.57 L205.05 207.28 L204.55 206.99 L231.03 191.7 L231.03 192.28 L231.03 192.86 Z" stroke="rgb(0, 0, 0)" stroke-width="0" fill-rule="evenodd" stroke-linejoin="miter" fill="rgb(0, 0, 0)" shape-rendering="geometricPrecision" /></g><g id="Solid"><path d="M257.01 206.7 L257.01 206.7 L257.01 207.28 L256.51 207.57 L231.03 192.86 L231.03 192.28 L231.03 191.7 Z" stroke="rgb(0, 0, 0)" stroke-width="0" fill-rule="evenodd" stroke-linejoin="miter" fill="rgb(0, 0, 0)" shape-rendering="geometricPrecision" /><line x1="253.41" y1="209.36" x2="231.03" y2="196.44" stroke="rgb(0, 0, 0)" stroke-width="1" shape-rendering="auto" /></g><g id="Solid"><line x1="333.15" y1="192.28" x2="333.15" y2="168.4" stroke="rgb(0, 0, 0)" stroke-width="1" shape-rendering="auto" /><path d="M336.25 192.45 L336.25 192.45 L337.25 193.03 L337.25 168.4 L336.25 168.4 Z" stroke="rgb(0, 0, 0)" stroke-width="0" fill-rule="evenodd" stroke-linejoin="miter" fill="rgb(0, 0, 0)" shape-rendering="geometricPrecision" /><path d="M332.65 193.03 L332.65 193.03 L333.65 192.45 L333.65 168.4 L332.65 168.4 Z" stroke="rgb(0, 0, 0)" stroke-width="0" fill-rule="evenodd" stroke-linejoin="miter" fill="rgb(0, 0, 0)" shape-rendering="geometricPrecision" /></g><g id="Solid"><path d="M334.95 192.86 L334.95 192.86 L334.95 192.28 L334.95 191.7 L356.42 204.1 L356.17 204.53 L355.92 204.96 Z" stroke="rgb(0, 0, 0)" stroke-width="0" fill-rule="evenodd" stroke-linejoin="miter" fill="rgb(0, 0, 0)" shape-rendering="geometricPrecision" /></g></g></g></svg>