<?xml version="1.0" encoding="UTF-8" standalone="no"?>
<svg
   xmlns:dc="http://purl.org/dc/elements/1.1/"
   xmlns:cc="http://creativecommons.org/ns#"
   xmlns:rdf="http://www.w3.org/1999/02/22-rdf-syntax-ns#"
   xmlns:svg="http://www.w3.org/2000/svg"
   xmlns="http://www.w3.org/2000/svg"
   xmlns:xlink="http://www.w3.org/1999/xlink"
   xmlns:sodipodi="http://sodipodi.sourceforge.net/DTD/sodipodi-0.dtd"
   xmlns:inkscape="http://www.inkscape.org/namespaces/inkscape"
   sodipodi:docname="aw-logo2-shadow.svg"
   inkscape:version="0.91 r13725"
   version="1.1"
   viewBox="0 0 177.9838 186.88144"
   height="199.34019"
   width="189.84937"
   id="front-page-logo">
  <sodipodi:namedview
     inkscape:current-layer="front-page-logo"
     inkscape:window-maximized="1"
     inkscape:window-y="-8"
     inkscape:window-x="-8"
     inkscape:cy="130.16317"
     inkscape:cx="29.828926"
     inkscape:zoom="2.3275119"
     fit-margin-left="0"
     fit-margin-top="0"
     fit-margin-bottom="0"
     fit-margin-right="0"
     showgrid="false"
     id="namedview9"
     inkscape:window-height="745"
     inkscape:window-width="1366"
     inkscape:pageshadow="2"
     inkscape:pageopacity="0"
     guidetolerance="10"
     gridtolerance="10"
     objecttolerance="10"
     borderopacity="1"
     bordercolor="#666666"
     pagecolor="#ffffff" />
  <metadata
     id="metadata13">
    <rdf:RDF>
      <cc:Work
         rdf:about="">
        <dc:format>image/svg+xml</dc:format>
        <dc:type
           rdf:resource="http://purl.org/dc/dcmitype/StillImage" />
        <dc:title></dc:title>
      </cc:Work>
    </rdf:RDF>
  </metadata>
  <defs
     id="defs11">
    <linearGradient
       inkscape:collect="always"
       id="linearGradient5683">
      <stop
         style="stop-color:#000000;stop-opacity:1;"
         offset="0"
         id="stop5685" />
      <stop
         style="stop-color:#000000;stop-opacity:0;"
         offset="1"
         id="stop5687" />
    </linearGradient>
    <linearGradient
       inkscape:collect="always"
       xlink:href="#linearGradient5683"
       id="linearGradient5681"
       x1="39.494484"
       y1="56.785259"
       x2="128.20517"
       y2="129.69815"
       gradientUnits="userSpaceOnUse"
       gradientTransform="matrix(0.93750016,0,0,0.93750016,0,-2.1305117e-5)" />
  </defs>
  <path
     style="opacity:0.20700001;fill:url(#linearGradient5681);fill-opacity:1"
     d="M 42.66724,0.45957269 24.673464,40.984486 l -0.20874,-0.45776 -0.21057,0 -0.20874,-0.4596 -0.21057,0 -0.20874,-0.45959 -0.21057,0 -0.20874,-0.45777 -0.21057,0 -0.20874,-0.45959 -0.21058,0 -0.20874,-0.4596 -0.21057,0 -0.20874,-0.45959 -0.21057,0 -0.20874,-0.45777 -0.21057,0 -0.20874,-0.45959 -0.21057,0 -0.20874,-0.4596 -0.21057,0 -0.20874,-0.45776 -0.21057,0 -0.20875,-0.45959 -0.21057,0 -0.20874,-0.4596 -0.21057,0 -0.20874,-0.45959 -0.21057,0 -0.20874,-0.45777 -0.2124,0 -0.20874,-0.45959 -0.21057,0 -0.20874,-0.4596 -0.21058,0 -0.20874,-0.45959 -0.21057,0 -0.20874,-0.45777 -0.21057,0 -0.20874,-0.45959 -0.21057,0 -0.20874,-0.4596 -0.21057,0 -0.20874,-0.45959 -0.21057,0 -0.20874,-0.45776 -0.21058,0 -0.20874,-0.4596 -0.21057,0 -0.20874,-0.45959 -0.21057,0 -0.20874,-0.45777 -0.21057,0 -0.20874,-0.45959 -0.21057,0 -0.20874,-0.4596 -0.21057,0 -0.20874,-0.45959 -0.21058,0 -0.20874,-0.45777 -0.21057,0 -0.20874,-0.45959 -0.2124,0 -0.20874,-0.4596 -0.21057,0 -0.20874,-0.45959 -0.21057,0 -0.20874,-0.45776 -0.21057,0 -0.20874,-0.459598 -0.21058,0 -0.20874,-0.45959 -0.21057,0 -0.20874,-0.4596 -0.21057,0 -0.20874,-0.45776 -5.489502,0 14.635622,32.20276 0.10437,-0.23437 0.002,0.004 -17.779548,40.00672 0.622558,0 -0.203247,0.45776 0.62439,0 -0.205078,0.45959 0.62439,0 -0.205078,0.4596 0.624389,0 -0.205078,0.4596 0.622559,0 -0.203247,0.45776 0.624389,0 -0.205078,0.4596 0.626221,0 -0.205078,0.45959 0.62439,0 -0.205078,0.4596 0.622558,0 -0.203247,0.45776 0.62439,0 -0.205078,0.459582 0.624389,0 -0.205078,0.4596 0.62439,0 -0.205078,0.45959 0.622559,0 -0.203247,0.45777 0.624386,0 -0.20507,0.4596 0.62438,0 -0.20507,0.45959 0.62256,0 -0.20325,0.45776 0.62439,0 -0.20508,0.4596 0.62439,0 -0.20508,0.45959 0.62439,0 -0.20508,0.4596 0.62256,0 -0.20325,0.45776 0.62439,0 -0.20507,0.45959 0.62439,0 -0.20508,0.4596 0.62622,0 -0.20508,0.45959 0.62256,0 -0.20325,0.45777 0.62439,0 -0.20508,0.4596 0.62439,0 -0.20507,0.45959 0.62439,0 -0.20508,0.4596 0.62256,0 -0.20325,0.45776 0.62439,0 -0.20508,0.45959 0.62439,0 -0.20508,0.45959 0.62256,0 -0.20325,0.45777 0.62439,0 -0.20508,0.45959 0.6244,0 -0.20508,0.4596 0.62439,0 -0.20508,0.45959 0.62256,0 -0.20325,0.45777 0.62439,0 -0.20508,0.45959 0.62439,0 -0.20508,0.4596 0.62622,0 -0.20507,0.45959 0.62255,0 -0.20324,0.45777 0.62439,0 -0.20508,0.45959 0.62439,0 -0.20508,0.45959 0.62439,0 -0.20508,0.4596 0.62256,0 -0.20325,0.45776 0.62439,0 -0.20508,0.4596 0.62439,0 -0.20507,0.4596 0.62256,0 -0.20325,0.45776 0.62439,0 -0.20508,0.45959 0.62439,0 -0.20508,0.4596 0.62439,0 -0.20508,0.45959 0.62256,0 -0.20325,0.45776 0.62439,0 -0.20507,0.4596 0.62439,0 -0.20508,0.45959 0.62622,0 -0.20508,0.4596 0.62256,0 -0.20325,0.45777 0.62439,0 -0.20508,0.45959 0.62439,0 -0.20507,0.4596 0.62439,0 -0.20508,0.45959 0.62256,0 -0.20325,0.45776 0.624386,0 -0.20508,0.4596 0.62439,0 -0.20508,0.45959 0.62256,0 -0.20325,0.45776 0.62439,0 -0.20508,0.4596 0.62439,0 -0.20507,0.45959 0.62439,0 -0.20508,0.4596 0.62256,0 -0.20325,0.45777 0.62439,0 -0.20508,0.45959 0.62439,0 -0.20508,0.4596 0.62439,0 -0.20508,0.45959 0.62439,0 -0.20324,0.45776 0.62439,0 -0.20508,0.4596 0.62439,0 -0.20508,0.45959 0.62439,0 -0.20508,0.45959 0.62256,0 -0.20325,0.45777 0.62439,0 -0.20507,0.45959 0.62438,0 -0.20507,0.4596 0.62256,0 -0.20325,0.45777 0.62439,0 -0.20508,0.45959 0.62439,0 -0.20508,0.45959 0.62439,0 -0.20508,0.4596 0.62256,0 -0.20325,0.45776 0.62439,0 -0.20507,0.45959 0.62439,0 -0.20508,0.4596 0.62439,0 -0.20508,0.45959 0.62439,0 -0.20325,0.45777 0.62439,0 -0.20508,0.4596 0.62439,0 -0.20507,0.45959 0.62439,0 -0.20508,0.4596 0.62256,0 -0.20325,0.45776 0.62439,0 -0.20508,0.45959 0.62439,0 -0.20508,0.4596 0.62256,0 -0.20325,0.45776 0.62439,0 -0.20508,0.45959 0.6244,0 -0.20508,0.4596 0.62439,0 -0.20508,0.45959 0.62256,0 -0.20325,0.45777 0.62439,0 -0.20508,0.4596 0.62439,0 -0.20508,0.45959 0.62439,0 -0.20508,0.4596 0.62256,0 -0.20324,0.45776 0.62622,0 -0.20508,0.45959 0.62439,0 -0.20508,0.4596 0.62439,0 -0.20508,0.45959 0.62256,0 -0.20325,0.45776 0.62439,0 -0.20508,0.4596 0.62439,0 -0.20507,0.45959 0.62256,0 -0.20325,0.45777 0.62439,0 -0.20508,0.4596 0.62439,0 -0.20508,0.45959 0.62439,0 -0.20508,0.45959 0.62256,0 -0.20325,0.45777 0.62439,0 -0.20507,0.45959 0.62439,0 -0.20508,0.4596 0.62439,0 -0.20508,0.45959 0.62256,0 -0.20325,0.45776 0.62622,0 -0.20508,0.4596 0.62439,0 -0.20507,0.4596 0.62439,0 -0.20508,0.45959 0.62256,0 -0.20325,0.45777 0.62439,0 -0.20508,0.45959 0.62439,0 -0.20508,0.45959 0.62256,0 -0.20325,0.45776 0.62439,0 -0.20508,0.4596 0.62439,0 -0.20507,0.45959 0.62439,0 -0.20508,0.4596 0.62256,0 -0.20325,0.45777 0.624392,0 -0.20508,0.45959 0.62439,0 -0.20508,0.4596 0.62439,0 -0.20508,0.45959 0.62256,0 -0.20324,0.45776 0.62622,0 -0.20508,0.4596 0.62439,0 -0.20508,0.45959 0.62439,0 -0.20508,0.4596 0.62256,0 -0.20325,0.45776 0.62439,0 -0.20507,0.45959 0.62438,0 -0.20507,0.4596 0.62256,0 -0.20325,0.45777 0.62439,0 -0.20508,0.45959 0.62439,0 -0.20508,0.4596 0.62439,0 -0.20508,0.45959 0.62256,0 -0.20325,0.45776 0.62439,0 -0.20507,0.4596 0.62439,0 -0.20508,0.45959 0.62439,0 -0.20508,0.4596 0.62256,0 -0.20325,0.45776 0.62439,0 -0.20508,0.45959 0.62622,0 -0.20507,0.4596 0.62439,0 -0.20508,0.4596 0.62256,0 -0.20325,0.45776 0.62439,0 -0.20508,0.4596 0.62439,0 -0.20508,0.45959 0.62256,0 -0.20325,0.45776 0.62439,0 -0.20508,0.4596 0.62439,0 -0.20507,0.45959 0.62439,0 -0.20508,0.45959 0.62256,0 -0.20325,0.45777 0.62439,0 -0.20508,0.4596 0.62439,0 -0.20508,0.45959 0.62439,0 -0.20508,0.4596 0.62256,0 -0.20324,0.45776 0.62439,0 -0.20508,0.45959 0.62622,0 -0.20508,0.4596 0.62439,0 -0.20508,0.45959 0.62256,0 -0.20325,0.45776 0.62439,0 -0.20508,0.4596 0.62439,0 -0.20507,0.45959 0.62256,0 -0.20325,0.45777 0.62439,0 -0.20508,0.4596 0.62439,0 -0.20508,0.45959 0.62439,0 -0.20508,0.4596 0.62256,0 -0.20325,0.45776 0.62439,0 -0.20507,0.45959 0.62439,0 -0.20508,0.4596 0.62439,0 -0.20508,0.45959 0.62256,0 -0.20325,0.45776 0.62439,0 -0.20508,0.4596 0.62622,0 -0.20508,0.45959 0.6244,0 -0.20508,0.4596 0.62256,0 -0.20325,0.45777 0.62439,0 -0.20508,0.45959 0.62439,0 -0.20508,0.4596 0.62256,0 -0.20325,0.45776 0.62439,0 -0.20508,0.45959 0.62439,0 -0.20507,0.4596 0.62439,0 -0.20508,0.45959 0.62256,0 -0.20325,0.45776 0.62439,0 -0.20508,0.4596 0.62439,0 -0.20508,0.4596 0.62439,0 -0.20508,0.45959 0.62256,0 -0.20324,0.45777 0.62439,0 -0.20508,0.45959 0.62439,0 -0.20508,0.4596 0.62622,0 -0.20508,0.45959 0.62256,0 -0.20325,0.45776 0.62439,0 -0.20507,0.45959 0.62438,0 -0.20507,0.4596 0.62256,0 -0.20325,0.45777 0.62439,0 -0.20508,0.4596 0.62439,0 -0.20508,0.45959 0.62439,0 -0.20508,0.45959 5.4419,0 11.865228,-26.67481 0.26551,0.58411 0.10254,-0.23987 0.31677,0.69763 0.10254,-0.23804 0.31678,0.69764 0.10253,-0.23804 0.31677,0.69764 0.10255,-0.23805 0.31677,0.69764 0.10253,-0.23987 0.31677,0.69763 0.10255,-0.23804 0.31677,0.69764 0.10253,-0.23987 0.31861,0.69946 0.10254,-0.23804 0.31677,0.69763 0.10254,-0.23986 0.31678,0.69763 0.10254,-0.23804 0.31677,0.69763 0.10254,-0.23804 0.31677,0.69763 0.10254,-0.23987 0.31677,0.69765 0.10254,-0.23805 0.31677,0.69764 0.10254,-0.23804 0.31678,0.69763 0.10253,-0.23803 0.31677,0.69763 0.10255,-0.23987 0.31677,0.69763 0.10253,-0.23804 0.31677,0.69763 0.10255,-0.23803 0.31677,0.69763 0.10254,-0.23804 0.31678,0.69763 0.10253,-0.23987 0.31677,0.69763 0.10255,-0.23803 0.31677,0.69763 0.10253,-0.23804 0.31677,0.69763 0.10255,-0.23986 0.3186,0.69946 0.10254,-0.23986 0.31677,0.69763 0.10254,-0.23804 0.31677,0.69763 0.10254,-0.23803 0.31678,0.69763 0.10253,-0.23987 0.31677,0.69763 0.10255,-0.23804 0.31677,0.69763 0.10254,-0.23803 0.31677,0.69763 0.10254,-0.23804 0.31677,0.69763 9.58924,-22.37366 0.21606,0.50537 0.1117,-0.26 0.30761,0.71959 0.11169,-0.26 0.30763,0.7196 0.11169,-0.26001 0.30761,0.71961 0.1117,-0.26001 0.30762,0.71777 0.11169,-0.26001 0.30761,0.71961 0.1117,-0.26001 0.30762,0.7196 0.11169,-0.26001 0.30763,0.71961 0.11169,-0.26002 0.30761,0.71778 0.1117,-0.26001 0.30762,0.7196 0.11169,-0.26183 0.30944,0.72143 0.11171,-0.26001 0.30761,0.7196 0.11169,-0.26 0.30762,0.71777 0.1117,-0.26001 0.30761,0.71961 0.11169,-0.26002 0.30763,0.71961 0.11169,-0.26001 0.30761,0.71777 0.1117,-0.26001 0.30762,0.71961 0.11169,-0.26002 0.30761,0.71961 0.1117,-0.26001 0.30762,0.71961 0.11169,-0.26002 0.30763,0.71778 0.11169,-0.26001 0.30761,0.7196 0.1117,-0.26 0.30762,0.7196 0.11169,-0.26001 0.30761,0.7196 0.1117,-0.26 0.30762,0.71777 0.11169,-0.26001 0.30762,0.71961 0.11169,-0.26185 0.30945,0.72144 0.11169,-0.26001 0.30763,0.71961 0.11169,-0.26002 0.30761,0.71778 0.1117,-0.26002 0.30762,0.71961 0.11169,-0.26001 0.30761,0.7196 0.11171,-0.26001 0.30761,0.71778 0.11169,-0.26001 0.30763,0.7196 0.11169,-0.26 0.30761,0.7196 0.1117,-0.26001 0.30762,0.7196 0.11169,-0.26 0.30761,0.71777 0.1117,-0.26001 0.30762,0.7196 0.11169,-0.26001 0.30762,0.71961 0.11169,-0.26001 0.30762,0.7196 0.11169,-0.26001 0.30763,0.71778 0.11169,-0.26002 0.30761,0.71961 0.1117,-0.26001 0.30762,0.7196 0.11169,-0.26183 0.30945,0.72143 0.1117,-0.26001 0.30761,0.71777 0.11169,-0.26 0.30762,0.7196 0.1117,-0.26001 0.30761,0.71961 0.11169,-0.26002 0.30763,0.71778 0.11169,-0.26001 0.30761,0.7196 0.1117,-0.26001 0.30762,0.71961 0.11169,-0.26002 0.30762,0.71961 3.81592,-8.9447 0.0567,0.13 0.2179,0 0.20142,0.45959 0.21972,0 0.20142,0.4596 0.21972,0 0.19959,0.45777 0.2179,0 0.20141,0.45959 0.21789,0 0.20143,0.4596 0.21972,0 0.19958,0.45776 0.2179,0 0.20142,0.45959 0.21789,0 0.20141,0.4596 0.2179,0 0.20142,0.45959 0.21972,0 0.19959,0.45776 0.2179,0 0.20141,0.45961 0.2179,0 0.20141,0.45959 0.2179,0 0.20141,0.4596 0.21974,0 0.19958,0.45776 0.21789,0 0.20142,0.45959 0.21789,0 0.20142,0.4596 0.21972,0 0.20143,0.45959 0.21972,0 0.19958,0.45776 0.2179,0 0.20142,0.4596 0.21789,0 0.20141,0.45959 0.21974,0 0.19958,0.45777 0.21789,0 0.20142,0.4596 0.2179,0 0.20141,0.45959 0.2179,0 0.20142,0.4596 5.4547,0 -10.29052,-23.52174 -0.10803,0.25268 -0.004,-0.011 25.01221,-58.624872 -0.61523,0 0.19592,-0.45959 -0.61524,0 0.19593,-0.4596 -0.61524,0 0.19592,-0.45959 -0.61523,0 0.19593,-0.45777 -0.61524,0 0.19592,-0.45959 -0.61523,0 0.19592,-0.45959 -0.61523,0 0.19592,-0.45777 -0.61706,0 0.19592,-0.45959 -0.61524,0 0.19593,-0.4596 -0.61524,0 0.19592,-0.45959 -0.61523,0 0.19592,-0.45777 -0.61524,0 0.19593,-0.45959 -0.61523,0 0.19592,-0.4596 -0.61524,0 0.19593,-0.45959 -0.61524,0 0.19592,-0.45777 -0.61523,0 0.19593,-0.45959 -0.61524,0 0.19592,-0.45959 -0.61523,0 0.19593,-0.4596 -0.61525,0 0.19593,-0.45776 -0.61524,0 0.19592,-0.4596 -0.61523,0 0.19593,-0.45959 -0.61524,0 0.19592,-0.45777 -0.61523,0 0.19593,-0.45959 -0.61708,0 0.19593,-0.4596 -0.61523,0 0.19592,-0.45959 -0.61524,0 0.19593,-0.45776 -0.61523,0 0.19591,-0.4596 -0.61523,0 0.19593,-0.45959 -0.61524,0 0.19592,-0.4596 -0.61523,0 0.19592,-0.45776 -0.61524,0 0.19593,-0.4596 -0.61523,0 0.19591,-0.45959 -0.61523,0 0.19593,-0.4596 -0.61524,0 0.19592,-0.45776 -0.61523,0 0.19593,-0.4596 -0.61524,0 0.19592,-0.45959 -0.61523,0 0.19592,-0.45776 -0.61524,0 0.19593,-0.4596 -0.61706,0 0.19591,-0.45959 -0.61523,0 0.19592,-0.4596 -0.61523,0 0.19592,-0.45776 -0.61523,0 0.19592,-0.4596 -0.61524,0 0.19593,-0.45959 -0.61523,0 0.19591,-0.4596 -0.61523,0 0.19593,-0.45776 -0.61524,0 0.19592,-0.4596 -0.61523,0 0.19593,-0.45959 -0.61524,0 0.19592,-0.4596 -0.61523,0 0.19591,-0.45776 -0.61523,0 0.19593,-0.45959 -0.61524,0 0.19592,-0.4596 -0.61523,0 0.19593,-0.45776 -0.61524,0 0.19592,-0.4596 -0.61706,0 0.19592,-0.45959 -0.61524,0 0.19593,-0.4596 -0.61523,0 0.19591,-0.45776 -0.61523,0 0.19593,-0.4596 -0.61524,0 0.19592,-0.45959 -0.61523,0 0.19592,-0.4596 -0.61523,0 0.19592,-0.45776 -0.61523,0 0.19592,-0.45959 -0.61524,0 0.19593,-0.4596 -0.61524,0 0.19592,-0.45959 -0.61523,0 0.19593,-0.45777 -0.61524,0 0.19592,-0.45959 -0.61523,0 0.19592,-0.4596 -0.61523,0 0.19592,-0.45776 -0.61524,0 0.19592,-0.4596 -0.61523,0 0.19593,-0.45959 -0.61707,0 0.19592,-0.45959 -0.61523,0 0.19592,-0.45777 -0.61524,0 0.19593,-0.45959 -0.61523,0 0.19592,-0.4596 -0.61524,0 0.19593,-0.45959 -0.61524,0 0.19592,-0.45777 -0.61523,0 0.19593,-0.45959 -0.61524,0 0.19592,-0.4596 -0.61523,0 0.19592,-0.45959 -0.61523,0 0.19592,-0.45776 -0.61523,0 0.19591,-0.4596 -0.61523,0 0.19593,-0.45959 -0.61524,0 0.19592,-0.45777 -0.61523,0 0.19593,-0.45959 -0.61524,0 0.19592,-0.4596 -0.61706,0 0.19592,-0.45959 -0.61524,0 0.19593,-0.45777 -0.61523,0 0.19591,-0.45959 -0.61523,0 0.19593,-0.4596 -0.61524,0 0.19592,-0.45959 -0.61523,0 0.19592,-0.45776 -0.61524,0 0.19593,-0.4596 -0.61523,0 0.19591,-0.459592 -0.61523,0 0.19593,-0.4596 -0.61524,0 0.19592,-0.45776 -0.61523,0 0.19593,-0.4596 -0.61524,0 0.19592,-0.45959 -0.61523,0 0.19591,-0.45777 -0.61522,0 0.19592,-0.45959 -0.61524,0 0.19592,-0.4596 -0.61706,0 0.19593,-0.45959 -0.61525,0 0.19593,-0.45776 -0.61523,0 0.19592,-0.4596 -0.61524,0 0.19593,-0.45959 -0.61523,0 0.19591,-0.4596 -0.61523,0 0.19593,-0.45776 -0.61524,0 0.19592,-0.4596 -0.61523,0 0.19593,-0.45959 -0.61524,0 0.19592,-0.4596 -0.61523,0 0.19591,-0.45776 -0.61523,0 0.19593,-0.4596 -0.61524,0 0.19592,-0.45959 -0.61523,0 0.19593,-0.45776 -0.61524,0 0.19592,-0.4596 -0.61523,0 0.19592,-0.45959 -0.61523,0 0.19592,-0.4596 -0.61706,0 0.19592,-0.45776 -0.61524,0 0.19593,-0.4596 -0.61524,0 0.19592,-0.45959 -0.61523,0 0.19593,-0.4596 -0.61525,0 0.19593,-0.45776 -0.61523,0 0.19592,-0.4596 -0.61524,0 0.19593,-0.45959 -0.61524,0 0.19592,-0.4596 -0.61523,0 0.19593,-0.45776 -0.61524,0 0.19592,-0.45959 -0.61523,0 0.19592,-0.4596 -0.61523,0 0.19592,-0.45776 -0.61524,0 0.19592,-0.4596 -0.61523,0 0.19593,-0.45959 -0.61524,0 0.19592,-0.4596 -0.61706,0 0.19592,-0.45776 -0.61524,0 0.19593,-0.4596 -0.61523,0 0.19592,-0.45959 -0.61524,0 0.19593,-0.45959 -0.61524,0 0.19592,-0.45777 -0.61523,0 0.19593,-0.45959 -0.61524,0 0.19592,-0.4596 -0.61523,0 0.19593,-0.45959 -0.61525,0 0.19593,-0.45777 -0.61523,0 0.19591,-0.45959 -0.61523,0 0.19593,-0.4596 -0.61524,0 0.19592,-0.45776 -0.61523,0 0.19593,-0.45959 -0.61524,0 0.19592,-0.4596 -0.61523,0 0.19592,-0.45959 -0.61523,0 0.19592,-0.45777 -0.61706,0 0.19591,-0.45959 -0.61523,0 0.19593,-0.4596 -0.61524,0 0.19592,-0.45959 -0.61523,0 0.19592,-0.45777 -0.61524,0 0.19593,-0.45959 -0.61523,0 0.19591,-0.4596 -0.61523,0 0.19593,-0.459588 -0.61524,0 0.19592,-0.45776 -0.61523,0 0.19593,-0.4596 -0.61524,0 0.19592,-0.45959 -0.61523,0 0.19592,-0.45777 -0.61524,0 0.19593,-0.45959 -0.61524,0 0.19592,-0.4596 -0.61523,0 0.19593,-0.45959 -0.61524,0 0.19592,-0.45777 -0.61706,0 0.19592,-0.45959 -0.61524,0 0.19593,-0.4596 -0.61523,0 0.19591,-0.45959 -0.61523,0 0.19593,-0.45776 -0.61524,0 0.19592,-0.4596 -0.61523,0 0.19593,-0.45959 -0.61524,0 0.19592,-0.4596 -0.61523,0 0.19591,-0.45776 -0.61523,0 0.19593,-0.4596 -0.61524,0 0.19592,-0.45959 -0.61523,0 0.19593,-0.45777 -0.61524,0 0.19592,-0.45959 -0.61523,0 0.19592,-0.4596 -0.61523,0 0.19592,-0.45959 -0.61524,0 0.19593,-0.45776 -0.61707,0 0.19593,-0.4596 -0.61524,0 0.19592,-0.45959 -0.61523,0 0.19592,-0.4596 -0.61523,0 0.19592,-0.45776 -0.61523,0 0.19592,-0.4596 -0.61524,0 0.19593,-0.45959 -0.61524,0 0.19592,-0.4596 -0.61523,0 0.19593,-0.45776 -0.61524,0 0.19592,-0.4596 -0.615228,0 0.19593,-0.4595903 -0.61524,0 0.19592,-0.45776 -0.61524,0 0.19592,-0.4596 -0.61523,0 0.19593,-0.45959 -0.61524,0 0.19592,-0.4596 -0.61523,0 0.19593,-0.45776 -0.61524,0 0.19592,-0.4596 -0.61706,0 0.19592,-0.45959 -0.61524,0 0.19593,-0.4596 -0.61524,0 0.19592,-0.457764 -0.61523,0 0.19593,-0.459595 -0.61524,0 0.19592,-0.459594 -0.61523,0 0.19592,-0.459595 -0.61523,0 0.19592,-0.457764 -5.43458,0 -13.9032,32.6312303 -0.21606,-0.49255 -0.10986,0.24719 -0.30945,-0.70679 -0.10987,0.2472 -0.30944,-0.70496 -0.10987,0.24719 -0.30944,-0.70678 -0.10987,0.24719 -0.30945,-0.70679 -0.10986,0.24902 -0.30945,-0.70678 -0.10986,0.24719 -0.30945,-0.70679 -0.10986,0.2472 -0.30945,-0.70679 -0.10986,0.24719 -0.30945,-0.70679 -0.1117,0.25086 -0.30945,-0.70862 -0.10986,0.24719 -0.30945,-0.70679 -0.10986,0.2472 -0.30945,-0.70679 -0.10986,0.24719 -0.30945,-0.70679 -0.10986,0.24903 -0.30945,-0.70679 -0.10986,0.24719 -0.30945,-0.70678 -0.10987,0.24719 -0.30945,-0.70679 -0.10986,0.24719 -0.30945,-0.70678 -0.10986,0.24902 -0.30945,-0.70679 -0.10986,0.2472 -0.30945,-0.70679 -0.10986,0.24719 -0.30945,-0.70679 -0.10986,0.24903 -0.30945,-0.70679 -0.10987,0.24719 -0.30944,-0.70679 -0.10987,0.2472 -0.30945,-0.70679 -0.10986,0.24719 -0.30945,-0.70678 -0.10986,0.24902 -0.30945,-0.706788 -0.11169,0.249028 -0.30945,-0.708618 -0.10987,0.24719 -0.30944,-0.70679 -0.10987,0.24719 -0.30945,-0.70678 -0.10986,0.24902 -0.30945,-0.70679 -0.10986,0.2472 -0.30945,-0.70679 -0.10986,0.24719 -0.30945,-0.70679 -0.10986,0.2472 -0.30945,-0.70679 -0.10987,0.24902 -0.30944,-0.70678 -0.10987,0.24719 -0.30944,-0.70679 -0.10987,0.24719 -0.30937,-0.7068 -0.10986,0.24903 -0.30945,-0.70679 -0.10986,0.24719 -0.30945,-0.70679 -0.10987,0.2472 -0.30944,-0.70679 -0.10987,0.24719 -0.30944,-0.70678 -0.10987,0.24902 -0.30945,-0.70679 -0.11169,0.24902 -0.30945,-0.70861 -0.10986,0.24719 -0.30945,-0.70679 -0.10986,0.24719 -0.30945,-0.70678 -0.10987,0.24902 -0.30944,-0.70679 -0.10987,0.2472 -0.30945,-0.70679 -0.10986,0.24719 -0.30945,-0.70679 -0.10986,0.2472 -0.30945,-0.70679 -0.10986,0.24902 -0.30945,-0.70678 -0.10986,0.24719 -0.30945,-0.70679 -0.10986,0.24719 -0.30945,-0.70678 -0.10987,0.24902 -0.30945,-0.70679 -0.10986,0.24719 -0.30945,-0.70678 -0.10986,0.24719 -0.30945,-0.70679 -0.109862,0.24719 -0.30945,-0.70678 -0.10986,0.24902 -0.30945,-0.70679 -0.1117,0.24903 -0.30944,-0.70862 -0.10987,0.24719 -0.30945,-0.70679 -0.10986,0.2472 -0.30945,-0.7067903 -0.10986,0.24902 -0.30945,-0.70678 -0.10986,0.24719 -0.30945,-0.70679 -0.10986,0.24719 -0.30945,-0.70678 -0.10987,0.24719 -0.30944,-0.70679 -0.10987,0.24902 -0.30945,-0.70678 -0.10986,0.24719 -0.30945,-0.70679 -0.10986,0.24719 -0.30945,-0.70678 -0.10986,0.24902 -0.30945,-0.70679 -0.10986,0.247192 -0.30945,-0.706787 -0.10987,0.247193 -0.30944,-0.706788 -0.10987,0.247193 -0.30945,-0.706787 -0.10986,0.249023 -0.30945,-0.706787 -0.10986,0.247192 -0.30945,-0.706787 -0.11169,0.249023 -0.30945,-0.708618 -0.10986,0.247193 -0.30945,-0.706788 -0.10987,0.249024 -0.30944,-0.706787 -0.10987,0.247192 -0.30945,-0.706787 -0.10986,0.247192 -0.30945,-0.706787 -0.10986,0.247192 L 43.0864,0.91765669 42.97654,1.1666807 42.66709,0.45989269 Z"
     id="path4815"
     inkscape:connector-curvature="0" />
  <g
     transform="translate(0,-1.4305117e-5)"
     id="g3">
    <path
       style="fill:#000000"
       inkscape:connector-curvature="0"
       id="path5"
       d="m 3.0371,23.08008 14.63674,32.20312 2.7129,-6.11523 -11.8594,-26.0879 -5.49022,0 z M 88.66406,3.21094 60.08398,70.1953 45.0879,35.20704 30.02148,70.36524 23.15234,55.25196 l -2.7246,6.08985 9.7285,21.4004 14.93166,-34.84378 15.00584,35.01367 34.0039,-79.70116 -5.43358,0 z" />
    <path
       style="fill:#ff0000"
       inkscape:connector-curvature="0"
       id="path7"
       d="m 69.19726,61.5957 -2.6914,6.31446 7.52734,17.20704 5.45508,0 L 69.19726,61.5957 Z M 42.24805,0 0,95.0586 l 5.4414,0 36.7715,-82.66602 21.52343,49.1914 2.709,-6.27734 L 42.24804,0 Z" />
  </g>
  <g
     id="g4153"
     transform="translate(0,-1.4305117e-5)">
    <path
       d="m 3.0371,23.08008 14.63674,32.20312 2.7129,-6.11523 -11.8594,-26.0879 -5.49022,0 z M 88.66406,3.21094 60.08398,70.1953 45.0879,35.20704 30.02148,70.36524 23.15234,55.25196 l -2.7246,6.08985 9.7285,21.4004 14.93166,-34.84378 15.00584,35.01367 34.0039,-79.70116 -5.43358,0 z"
       id="path4155"
       inkscape:connector-curvature="0"
       style="fill:#000000" />
    <path
       d="m 69.19726,61.5957 -2.6914,6.31446 7.52734,17.20704 5.45508,0 L 69.19726,61.5957 Z M 42.24805,0 0,95.0586 l 5.4414,0 36.7715,-82.66602 21.52343,49.1914 2.709,-6.27734 L 42.24804,0 Z"
       id="path4157"
       inkscape:connector-curvature="0"
       style="fill:#ff0000" />
  </g>
</svg>
